<?xml version="1.0" standalone="no"?>
<!DOCTYPE svg PUBLIC "-//W3C//DTD SVG 1.1//EN" "http://www.w3.org/Graphics/SVG/1.1/DTD/svg11.dtd" >
<svg xmlns="http://www.w3.org/2000/svg">
<metadata>
<json>
<![CDATA[
{
	"fontFamily": "MaterialIcons-Sharp",
	"majorVersion": 1,
	"minorVersion": 0,
	"fontURL": "http://quackcode.pl/",
	"version": "Version 1.0",
	"fontId": "MaterialIcons-Sharp",
	"psName": "MaterialIcons-Sharp",
	"subFamily": "Regular",
	"fullName": "MaterialIcons-Sharp",
	"description": "Font generated by IcoMoon."
}
]]>
</json>
</metadata>
<defs>
<font id="MaterialIcons-Sharp" horiz-adv-x="1024">
<font-face units-per-em="1024" ascent="1024" descent="0" />
<missing-glyph horiz-adv-x="1024" />
<glyph unicode="&#x20;" horiz-adv-x="0" d="" />
<glyph unicode="&#xe900;" glyph-name="threed_rotation" data-tags="d_rotation" d="M321.28 107.52c-140.214 67.158-238.79 201.37-254.57 359.95l-0.15 1.863h-64c21.76-262.827 241.493-469.333 509.867-469.333l28.16 1.28-162.56 162.56-56.747-56.32zM359.253 385.707c-8.107 0-15.787 1.28-22.187 3.413-6.648 2.247-12.35 5.749-17.085 10.258l0.019-0.018c-4.693 4.267-8.533 9.387-11.093 15.787-2.56 5.973-3.84 12.8-3.84 20.053h-55.467c0-15.36 2.987-29.013 8.96-40.533s14.080-21.333 23.893-29.44c10.24-7.68 21.76-13.653 34.987-17.493 12.8-4.267 26.453-6.4 40.96-6.4 15.787 0 30.72 2.133 43.947 6.4 13.653 4.267 25.6 10.667 35.413 18.773s17.92 18.347 23.467 30.72 8.533 26.027 8.533 41.387c0 8.107-0.853 16.213-2.987 23.893-2.198 8.273-5.564 15.523-9.973 22.008l0.159-0.248c-4.267 6.827-10.24 12.8-17.067 18.347-7.253 5.547-15.787 9.813-26.027 13.227 15.683 7.1 28.555 18.055 37.772 31.684l0.202 0.316c4.267 6.4 7.253 12.8 9.387 19.627s2.987 13.653 2.987 20.48c0 15.36-2.56 29.013-7.68 40.96s-12.373 21.76-21.76 29.44c-8.533 8.107-20.053 14.080-32.853 18.347-13.227 3.84-27.733 5.973-43.52 5.973-15.36 0-29.44-2.133-42.667-6.827-12.8-4.693-24.32-11.093-33.707-19.2-8.96-8.107-16.213-17.493-21.76-28.587-5.12-11.093-7.68-23.040-7.68-36.267h55.467c0 7.253 1.28 13.653 3.84 19.2s5.973 10.667 10.667 14.507 9.813 7.253 16.213 9.387 12.8 3.413 20.48 3.413c17.067 0 29.867-4.267 37.973-13.227 8.107-8.533 12.373-20.907 12.373-36.693 0-7.68-1.28-14.507-3.413-20.907s-5.973-11.52-10.667-15.787c-4.693-4.267-10.667-7.68-17.493-10.24s-15.36-3.84-24.747-3.84h-32.853v-43.947h32.853c9.387 0 17.92-0.853 25.6-2.987s14.080-5.547 19.2-9.813c5.12-4.693 9.387-10.24 12.373-17.067s4.267-14.933 4.267-24.32c0-17.493-5.12-30.72-14.933-39.68-9.813-9.813-23.467-14.080-40.533-14.080zM724.053 638.293c-13.653 14.080-29.867 25.173-48.64 32.853s-39.68 11.52-62.72 11.52h-100.693v-341.333h98.133c23.467 0 45.227 3.84 64.427 11.52s35.84 18.347 49.493 32.427c13.653 14.080 24.32 31.147 31.573 50.773 7.253 20.053 11.093 42.24 11.093 66.987v17.067c0 24.747-3.84 46.933-11.093 66.987s-17.92 37.12-31.573 51.2zM707.413 503.467c0-17.92-2.133-33.707-5.973-48.213-4.267-14.080-10.24-26.453-18.347-36.267s-18.347-17.493-30.293-22.613c-12.373-5.12-26.453-7.68-42.24-7.68h-38.827v246.187h41.387c30.72 0 54.187-9.813 69.973-29.44 16.213-19.627 24.32-47.787 24.32-84.907v-17.067zM512.427 1024l-28.16-1.28 162.56-162.56 56.747 56.747c139.52-66.133 239.36-201.387 254.293-361.813h64c-21.333 262.4-241.067 468.907-509.44 468.907z" />
<glyph unicode="&#xe901;" glyph-name="fourk" data-tags="k" d="M896 896h-768v-768h768v768zM512 447.573h-42.667v-63.573h-64v64h-128v192h64v-128h64v128h64v-128h42.667v-64.427zM776.533 384h-72.533l-85.333 128v-128h-64v256h64v-128l85.333 128h72.533l-85.333-128 85.333-128z" />
<glyph unicode="&#xe902;" glyph-name="three-sixty" data-tags="360" d="M512 725.333c-235.52 0-426.667-95.573-426.667-213.333 0-95.573 125.44-176.213 298.667-203.52v-137.813l170.667 170.667-170.667 170.667v-116.48c-134.4 23.893-213.333 81.067-213.333 116.48 0 45.227 129.707 128 341.333 128s341.333-82.773 341.333-128c0-31.147-62.293-80.64-170.667-107.947v-87.467c150.613 32.853 256 107.947 256 195.413 0 117.76-191.147 213.333-426.667 213.333z" />
<glyph unicode="&#xe903;" glyph-name="ac_unit" data-tags="ac_unit" d="M938.667 554.667h-177.92l138.24 138.24-60.16 60.587-198.827-198.827h-85.333v85.333l198.827 198.827-60.587 60.16-138.24-138.24v177.92h-85.333v-177.92l-138.24 138.24-60.587-60.16 198.827-198.827v-85.333h-85.333l-198.827 198.827-60.16-60.587 138.24-138.24h-177.92v-85.333h177.92l-138.24-138.24 60.16-60.587 198.827 198.827h85.333v-85.333l-198.827-198.827 60.587-60.16 138.24 138.24v-177.92h85.333v177.92l138.24-138.24 60.587 60.16-198.827 198.827v85.333h85.333l198.827-198.827 60.16 60.587-138.24 138.24h177.92v85.333z" />
<glyph unicode="&#xe904;" glyph-name="access_alarm" data-tags="access_alarm" d="M938.667 779.947l-196.267 164.693-55.040-65.28 196.267-164.693 55.040 65.28zM336.213 879.36l-54.613 65.28-196.267-164.267 55.040-65.28 195.84 164.267zM533.333 682.667h-64v-256l202.667-121.6 32 52.48-170.667 101.12v224zM512 853.333c-212.053 0-384-171.947-384-384s171.52-384 384-384c212.077 0 384 171.923 384 384s-171.923 384-384 384v0zM512 170.667c-165.12 0-298.667 133.547-298.667 298.667s133.547 298.667 298.667 298.667 298.667-133.547 298.667-298.667-133.547-298.667-298.667-298.667z" />
<glyph unicode="&#xe905;" glyph-name="access_alarms" data-tags="access_alarms" d="M938.667 780.8l-196.267 166.4-55.467-64 196.267-166.4 55.467 64zM337.067 878.933l-55.467 64-196.267-162.133 55.467-64 196.267 162.133zM533.333 682.667h-64v-256l200.533-123.733 34.133 51.2-170.667 102.4v226.133zM512 853.333c-213.333 0-384-170.667-384-384s170.667-384 384-384 384 170.667 384 384-170.667 384-384 384zM512 170.667c-166.4 0-298.667 132.267-298.667 298.667s132.267 298.667 298.667 298.667 298.667-132.267 298.667-298.667-132.267-298.667-298.667-298.667z" />
<glyph unicode="&#xe906;" glyph-name="access_time" data-tags="access_time" d="M511.573 938.667c-235.52 0-426.24-191.147-426.24-426.667s190.72-426.667 426.24-426.667c235.947 0 427.093 191.147 427.093 426.667s-191.147 426.667-427.093 426.667zM512 170.667c-188.587 0-341.333 152.747-341.333 341.333s152.747 341.333 341.333 341.333 341.333-152.747 341.333-341.333-152.747-341.333-341.333-341.333zM533.333 725.333h-64v-256l224-134.4 32 52.48-192 113.92z" />
<glyph unicode="&#xe907;" glyph-name="accessibility" data-tags="accessibility" d="M512 938.667c46.933 0 85.333-38.4 85.333-85.333s-38.4-85.333-85.333-85.333-85.333 38.4-85.333 85.333 38.4 85.333 85.333 85.333zM896 640h-256v-554.667h-85.333v256h-85.333v-256h-85.333v554.667h-256v85.333h768v-85.333z" />
<glyph unicode="&#xe908;" glyph-name="accessibility_new" data-tags="accessibility_new" d="M874.667 768c-111.36-29.867-241.92-42.667-362.667-42.667s-251.307 12.8-362.667 42.667l-21.333-85.333c79.36-21.333 170.667-35.413 256-42.667v-554.667h85.333v256h85.333v-256h85.333v554.667c85.333 7.253 176.64 21.333 256 42.667l-21.333 85.333zM512 768c46.933 0 85.333 38.4 85.333 85.333s-38.4 85.333-85.333 85.333-85.333-38.4-85.333-85.333 38.4-85.333 85.333-85.333z" />
<glyph unicode="&#xe909;" glyph-name="accessible" data-tags="accessible" d="M597.333 853.333c0-47.128-38.205-85.333-85.333-85.333s-85.333 38.205-85.333 85.333c0 47.128 38.205 85.333 85.333 85.333s85.333-38.205 85.333-85.333zM810.667 469.333v85.333c-65.707-0.853-131.84 32-173.653 78.080l-55.040 61.013c-7.253 8.107-16.213 14.507-26.027 19.2-0.427 0-0.427 0.427-0.853 0.427h-0.427c-15.787 8.96-33.28 13.227-53.333 10.667-43.52-5.12-74.667-44.373-74.667-88.32v-337.067h298.667v-213.333h85.333v320h-213.333v147.2c55.040-45.653 138.667-82.773 213.333-83.2zM547.413 256c-17.493-49.493-64.853-85.333-120.747-85.333-70.827 0-128 57.173-128 128 0 55.893 35.84 102.827 85.333 120.747v88.32c-98.045-20.565-170.612-106.314-170.612-209.012 0-117.821 95.513-213.333 213.333-213.333 102.698 0 188.447 72.567 208.767 169.222l0.244 1.39h-88.32z" />
<glyph unicode="&#xe90a;" glyph-name="accessible_forward" data-tags="accessible_forward" d="M853.333 830.293c0-47.128-38.205-85.333-85.333-85.333s-85.333 38.205-85.333 85.333c0 47.128 38.205 85.333 85.333 85.333s85.333-38.205 85.333-85.333zM640 298.667h-85.333c0-70.4-57.6-128-128-128s-128 57.6-128 128 57.6 128 128 128v85.333c-117.76 0-213.333-95.573-213.333-213.333s95.573-213.333 213.333-213.333 213.333 95.573 213.333 213.333zM853.333 448h-164.693l71.253 156.587c26.027 56.747-15.787 120.747-78.933 120.747h-221.867c-34.56 0-65.707-20.053-79.787-51.2l-28.587-76.8 81.92-22.613 27.733 65.28h94.293l-133.12-298.667h346.453v-213.333h85.333v320z" />
<glyph unicode="&#xe90b;" glyph-name="account_balance" data-tags="account_balance" d="M170.667 597.333v-298.667h128v298.667h-128zM426.667 597.333v-298.667h128v298.667h-128zM85.333 85.333h810.667v128h-810.667v-128zM682.667 597.333v-298.667h128v298.667h-128zM490.667 981.333l-405.333-213.333v-85.333h810.667v85.333l-405.333 213.333z" />
<glyph unicode="&#xe90c;" glyph-name="account_balance_wallet" data-tags="account_balance_wallet" d="M896 256v-128h-768v768h768v-128h-469.333v-512h469.333zM512 341.333h426.667v341.333h-426.667v-341.333zM682.667 448c-35.413 0-64 28.587-64 64s28.587 64 64 64 64-28.587 64-64-28.587-64-64-64z" />
<glyph unicode="&#xe90d;" glyph-name="account_box" data-tags="account_box" d="M128 128h768v768h-768v-768zM640 640c0-70.827-57.173-128-128-128s-128 57.173-128 128 57.173 128 128 128 128-57.173 128-128zM256 298.667c0 85.333 170.667 132.267 256 132.267s256-46.933 256-132.267v-42.667h-512v42.667z" />
<glyph unicode="&#xe90e;" glyph-name="account_circle" data-tags="account_circle" d="M512 938.667c-235.52 0-426.667-191.147-426.667-426.667s191.147-426.667 426.667-426.667 426.667 191.147 426.667 426.667-191.147 426.667-426.667 426.667zM512 810.667c70.827 0 128-57.173 128-128s-57.173-128-128-128-128 57.173-128 128 57.173 128 128 128zM512 204.8c0 0-0.001 0-0.001 0-106.401 0-200.168 54.094-255.3 136.28l-0.699 1.106c1.28 84.907 170.667 131.413 256 131.413 84.907 0 254.72-46.507 256-131.413-55.831-83.293-149.598-137.387-255.999-137.387-0.001 0-0.001 0-0.002 0v0z" />
<glyph unicode="&#xe90f;" glyph-name="adb" data-tags="adb" d="M213.333 341.333c0-165.12 133.547-298.667 298.667-298.667s298.667 133.547 298.667 298.667v170.667h-597.333v-170.667zM687.787 837.547l89.6 89.6-34.987 35.413-98.133-98.56c-40.107 20.053-84.48 32-132.267 32s-92.16-11.947-131.84-32l-98.56 98.56-34.987-35.413 89.6-89.6c-74.24-54.187-122.88-141.227-122.88-240.213v-42.667h597.333v42.667c0 98.987-48.64 186.027-122.88 240.213zM384 640c-23.467 0-42.667 19.2-42.667 42.667s19.2 42.667 42.667 42.667 42.667-19.2 42.667-42.667-19.2-42.667-42.667-42.667zM640 640c-23.467 0-42.667 19.2-42.667 42.667s19.2 42.667 42.667 42.667 42.667-19.2 42.667-42.667-19.2-42.667-42.667-42.667z" />
<glyph unicode="&#xe910;" glyph-name="add" data-tags="add" d="M810.667 469.333h-256v-256h-85.333v256h-256v85.333h256v256h85.333v-256h256v-85.333z" />
<glyph unicode="&#xe911;" glyph-name="add_a_photo" data-tags="add_a_photo" d="M128 853.333v128h85.333v-128h128v-85.333h-128v-128h-85.333v128h-128v85.333h128zM256 597.333v128h128v128h298.667l78.080-85.333h135.253c46.933 0 85.333-38.4 85.333-85.333v-512c0-46.933-38.4-85.333-85.333-85.333h-682.667c-46.933 0-85.333 38.4-85.333 85.333v426.667h128zM554.667 213.333c117.76 0 213.333 95.573 213.333 213.333s-95.573 213.333-213.333 213.333-213.333-95.573-213.333-213.333 95.573-213.333 213.333-213.333zM418.133 426.667c0-75.52 61.013-136.533 136.533-136.533s136.533 61.013 136.533 136.533-61.013 136.533-136.533 136.533-136.533-61.013-136.533-136.533z" />
<glyph unicode="&#xe912;" glyph-name="add_alarm" data-tags="add_alarm" d="M336.213 879.36l-54.613 65.28-196.267-164.267 55.040-65.28 195.84 164.267zM938.667 779.947l-196.267 164.693-55.040-65.28 196.267-164.693 55.040 65.28zM512 853.333c-212.053 0-384-171.947-384-384s171.52-384 384-384c212.077 0 384 171.923 384 384s-171.923 384-384 384v0zM512 170.667c-165.12 0-298.667 133.547-298.667 298.667s133.547 298.667 298.667 298.667 298.667-133.547 298.667-298.667-133.547-298.667-298.667-298.667zM554.667 640h-85.333v-128h-128v-85.333h128v-128h85.333v128h128v85.333h-128v128z" />
<glyph unicode="&#xe913;" glyph-name="add_alert" data-tags="add_alert" d="M512 42.667c46.933 0 84.907 37.973 84.907 84.907h-169.813c0-46.933 37.973-84.907 84.907-84.907zM810.667 298.667v256c0 142.933-100.693 262.4-234.667 291.413v113.92h-128v-113.92c-133.973-29.013-234.667-148.48-234.667-291.413v-256l-85.333-85.333v-42.667h768v42.667l-85.333 85.333zM682.667 468.907h-128v-128h-85.333v128h-128v85.76h128v128h85.333v-128h128v-85.76z" />
<glyph unicode="&#xe914;" glyph-name="add_box" data-tags="add_box" d="M896 896h-768v-768h768v768zM725.333 469.333h-170.667v-170.667h-85.333v170.667h-170.667v85.333h170.667v170.667h85.333v-170.667h170.667v-85.333z" />
<glyph unicode="&#xe915;" glyph-name="add_circle" data-tags="add_circle" d="M512 938.667c-235.52 0-426.667-191.147-426.667-426.667s191.147-426.667 426.667-426.667 426.667 191.147 426.667 426.667-191.147 426.667-426.667 426.667zM725.333 469.333h-170.667v-170.667h-85.333v170.667h-170.667v85.333h170.667v170.667h85.333v-170.667h170.667v-85.333z" />
<glyph unicode="&#xe916;" glyph-name="add_circle_outline" data-tags="add_circle_outline" d="M554.667 725.333h-85.333v-170.667h-170.667v-85.333h170.667v-170.667h85.333v170.667h170.667v85.333h-170.667v170.667zM512 938.667c-235.52 0-426.667-191.147-426.667-426.667s191.147-426.667 426.667-426.667 426.667 191.147 426.667 426.667-191.147 426.667-426.667 426.667zM512 170.667c-188.16 0-341.333 153.173-341.333 341.333s153.173 341.333 341.333 341.333 341.333-153.173 341.333-341.333-153.173-341.333-341.333-341.333z" />
<glyph unicode="&#xe917;" glyph-name="add_comment" data-tags="add_comment" d="M938.667 938.667h-853.333v-682.667h682.667l170.667-170.667v853.333zM725.333 554.667h-170.667v-170.667h-85.333v170.667h-170.667v85.333h170.667v170.667h85.333v-170.667h170.667v-85.333z" />
<glyph unicode="&#xe918;" glyph-name="add_location" data-tags="add_location" d="M512 938.667c-164.693 0-298.667-133.973-298.667-298.667 0-224 298.667-554.667 298.667-554.667s298.667 330.667 298.667 554.667c0 164.693-133.973 298.667-298.667 298.667zM682.667 597.333h-128v-128h-85.333v128h-128v85.333h128v128h85.333v-128h128v-85.333z" />
<glyph unicode="&#xe919;" glyph-name="add_photo_alternate" data-tags="add_photo_alternate" d="M810.667 725.333v-127.573s-84.907-0.427-85.333 0v127.573h-128s0.427 84.907 0 85.333h128v128h85.333v-128h128v-85.333h-128zM682.667 554.667v128h-128v128h-426.667v-682.667h682.667v426.667h-128zM213.333 213.333l128 170.667 85.333-128 128 170.667 170.667-213.333h-512z" />
<glyph unicode="&#xe91a;" glyph-name="add_shopping_cart" data-tags="add_shopping_cart" d="M469.333 640h85.333v128h128v85.333h-128v128h-85.333v-128h-128v-85.333h128v-128zM298.667 256c-46.933 0-84.907-38.4-84.907-85.333s37.973-85.333 84.907-85.333 85.333 38.4 85.333 85.333-38.4 85.333-85.333 85.333zM725.333 256c-46.933 0-84.907-38.4-84.907-85.333s37.973-85.333 84.907-85.333 85.333 38.4 85.333 85.333-38.4 85.333-85.333 85.333zM345.6 469.333h317.867c32 0 60.16 17.493 74.667 43.947l164.693 299.093-74.24 40.96-165.12-298.667h-299.52l-181.76 384h-139.52v-85.333h85.333l153.6-323.84-127.147-230.827h656.213v85.333h-512l46.933 85.333z" />
<glyph unicode="&#xe91b;" glyph-name="add_to_home_screen" data-tags="add_to_home_screen" d="M853.333 980.907l-597.333 0.427v-213.333h85.333v42.667h426.667v-597.333h-426.667v42.667h-85.333v-213.333h597.333v938.24zM426.667 384h85.333v298.667h-298.667v-85.333h153.173l-238.507-238.507 60.16-60.16 238.507 238.507v-153.173z" />
<glyph unicode="&#xe91c;" glyph-name="add_to_photos" data-tags="add_to_photos" d="M170.667 768h-85.333v-682.667h682.667v85.333h-597.333v597.333zM938.667 938.667h-682.667v-682.667h682.667v682.667zM810.667 554.667h-170.667v-170.667h-85.333v170.667h-170.667v85.333h170.667v170.667h85.333v-170.667h170.667v-85.333z" />
<glyph unicode="&#xe91d;" glyph-name="add_to_queue" data-tags="add_to_queue" d="M981.333 896h-938.667v-682.667h298.667v-85.333h341.333v85.333h298.667v682.667zM896 298.667h-768v512h768v-512zM682.667 597.333v-85.333h-128v-128h-85.333v128h-128v85.333h128v128h85.333v-128h128z" />
<glyph unicode="&#xe91e;" glyph-name="adjust" data-tags="adjust" d="M512 938.667c-235.093 0-426.667-191.573-426.667-426.667s191.573-426.667 426.667-426.667 426.667 191.573 426.667 426.667-191.573 426.667-426.667 426.667zM512 170.667c-188.16 0-341.333 153.173-341.333 341.333s153.173 341.333 341.333 341.333 341.333-153.173 341.333-341.333-153.173-341.333-341.333-341.333zM640 512c0-70.827-57.173-128-128-128s-128 57.173-128 128 57.173 128 128 128 128-57.173 128-128z" />
<glyph unicode="&#xe91f;" glyph-name="airline_seat_flat" data-tags="airline_seat_flat" d="M938.667 725.333v-256h-554.667v256h554.667zM85.333 426.667v-85.333h256v-85.333h341.333v85.333h256v85.333h-853.333zM304.64 507.733c22.625 23.069 36.589 54.703 36.589 89.599 0 35.745-14.652 68.067-38.277 91.29l-0.018 0.018c-23.069 22.625-54.703 36.589-89.599 36.589-35.745 0-68.067-14.652-91.29-38.277l-0.018-0.018c-22.625-23.069-36.589-54.703-36.589-89.599 0-35.745 14.652-68.067 38.277-91.29l0.018-0.018c23.069-22.625 54.703-36.589 89.599-36.589 35.745 0 68.067 14.652 91.29 38.277l0.018 0.018z" />
<glyph unicode="&#xe920;" glyph-name="airline_seat_flat_angled" data-tags="airline_seat_flat_angled" d="M919.893 333.653l-527.36 190.72 88.747 241.493 526.933-190.72-88.32-241.493zM64 506.027l277.333-99.84v-192.853h341.333v69.547l192.853-69.547 29.44 80.64-811.52 292.693-29.44-80.64zM311.467 588.8c43.283 21.264 72.549 65.031 72.549 115.633 0 19.997-4.57 38.926-12.723 55.8l0.334-0.767c-21.227 43.217-64.924 72.439-115.446 72.439-20.238 0-39.381-4.689-56.402-13.040l0.755 0.335c-43.226-21.042-72.487-64.637-72.487-115.067 0-20.227 4.707-39.355 13.087-56.347l-0.333 0.748c21.042-43.226 64.637-72.487 115.067-72.487 20.227 0 39.355 4.707 56.347 13.087l-0.748-0.333z" />
<glyph unicode="&#xe921;" glyph-name="airline_seat_individual_suite" data-tags="airline_seat_individual_suite" d="M298.667 469.333c70.4 0 128 57.6 128 128s-57.6 128-128 128-128-57.6-128-128 57.6-128 128-128zM981.333 725.333h-512v-298.667h-341.333v298.667h-85.333v-426.667h938.667v426.667z" />
<glyph unicode="&#xe922;" glyph-name="airline_seat_legroom_extra" data-tags="airline_seat_legroom_extra" d="M170.667 896h-85.333v-597.333h469.333v85.333h-384zM948.907 343.040l-107.947-49.067-145.493 297.813c-14.205 28.502-42.987 47.824-76.321 48.213h-149.812v256h-256v-469.333h426.667l145.493-298.667 216.32 98.987-52.907 116.053z" />
<glyph unicode="&#xe923;" glyph-name="airline_seat_legroom_normal" data-tags="airline_seat_legroom_normal" d="M213.333 384v512h-85.333v-597.333h469.333v85.333h-384zM938.667 256h-128v298.667c0 46.933-38.4 85.333-85.333 85.333h-213.333v256h-256v-469.333h426.667v-298.667h256v128z" />
<glyph unicode="&#xe924;" glyph-name="airline_seat_legroom_reduced" data-tags="airline_seat_legroom_reduced" d="M852.053 128h-254.72v128l42.667 170.667h-384v469.333h256v-256h213.333c46.933 0 85.333-38.4 85.333-85.333l-85.333-298.667h126.72v-128zM213.333 384v512h-85.333v-597.333h384v85.333h-298.667z" />
<glyph unicode="&#xe925;" glyph-name="airline_seat_recline_extra" data-tags="airline_seat_recline_extra" d="M228.267 783.36c-38.4 27.307-47.787 80.213-20.907 119.040 26.88 38.4 80.213 47.787 119.040 20.907 38.4-27.307 47.787-80.213 20.907-119.040-27.307-38.4-80.213-47.787-119.040-20.907zM682.667 213.333h-405.333l-106.667 512h-85.333l121.6-597.333h475.733v85.333zM692.48 384h-208.213l-43.947 174.933c67.413-37.973 139.947-65.707 219.733-52.053v90.88c-69.547-13.227-146.773 11.52-200.107 53.333l-69.973 54.187c-9.813 7.68-20.907 12.8-32.427 16.213-7.988 2.445-17.169 3.853-26.679 3.853-5.496 0-10.883-0.47-16.122-1.373l0.56 0.080h-0.853c-45.678-8.329-79.852-47.813-79.852-95.278 0-5.681 0.489-11.247 1.429-16.659l-0.083 0.577 81.493-356.693h394.24l162.987-128 64 64-246.187 192z" />
<glyph unicode="&#xe926;" glyph-name="airline_seat_recline_normal" data-tags="airline_seat_recline_normal" d="M323.84 793.173c-33.28 33.28-33.28 87.467 0 120.747s87.467 33.28 120.747 0 33.28-87.467 0-120.747c-33.707-33.707-87.467-33.707-120.747 0zM256 213.333v512h-85.333v-597.333h469.333v85.333h-384zM853.333 167.68l-216.32 216.32h-146.347v157.013c59.733-49.067 153.6-92.16 234.667-92.16v92.16c-70.827-0.853-154.027 37.12-199.253 87.040l-59.733 66.133c-8.107 8.96-18.347 16.213-29.44 21.333-12.373 5.973-26.453 9.813-40.96 9.813h-1.28c-52.907 0-96-43.093-96-96v-373.333h344.32l149.333-149.333 61.013 61.013z" />
<glyph unicode="&#xe927;" glyph-name="airplanemode_active" data-tags="airplanemode_active" d="M896 341.333v85.333l-341.333 213.333v234.667c0 35.413-28.587 64-64 64s-64-28.587-64-64v-234.667l-341.333-213.333v-85.333l341.333 106.667v-234.667l-85.333-64v-64l149.333 42.667 149.333-42.667v64l-85.333 64v234.667l341.333-106.667z" />
<glyph unicode="&#xe928;" glyph-name="airplanemode_inactive" data-tags="airplanemode_inactive" d="M896 341.333v85.333l-341.333 213.333v234.667c0 35.413-28.587 64-64 64s-64-28.587-64-64v-132.693l369.067-369.067 100.267-31.573zM799.147 128l60.16 60.16-671.147 671.147-60.16-60.16 212.907-212.907-255.573-159.573v-85.333l341.333 106.667v-234.667l-85.333-64v-64l149.333 42.667 149.333-42.667v64l-85.333 64v159.147z" />
<glyph unicode="&#xe929;" glyph-name="flight_land" data-tags="flight_land" d="M106.667 213.333h810.667v-85.333h-810.667v85.333zM825.173 347.733c34.133-8.96 69.12 11.093 78.507 45.227 8.96 34.133-11.093 69.12-45.227 78.507l-226.56 60.587-117.76 384.853-82.347 21.76v-353.28l-212.053 56.747-39.68 98.987-61.867 16.64v-220.587l706.987-189.44z" />
<glyph unicode="&#xe92a;" glyph-name="airport_shuttle" data-tags="airport_shuttle" d="M725.333 810.667h-682.667v-469.333h85.333c0-70.827 57.173-128 128-128s128 57.173 128 128h256c0-70.827 57.173-128 128-128s128 57.173 128 128h85.333v213.333l-256 256zM128 554.667v170.667h170.667v-170.667h-170.667zM256 288c-29.455 0-53.333 23.878-53.333 53.333s23.878 53.333 53.333 53.333v0c29.455 0 53.333-23.878 53.333-53.333s-23.878-53.333-53.333-53.333v0zM554.667 554.667h-170.667v170.667h170.667v-170.667zM768 288c-29.455 0-53.333 23.878-53.333 53.333s23.878 53.333 53.333 53.333v0c29.455 0 53.333-23.878 53.333-53.333s-23.878-53.333-53.333-53.333v0zM640 554.667v170.667h42.667l170.667-170.667h-213.333z" />
<glyph unicode="&#xe92b;" glyph-name="alarm" data-tags="alarm" d="M533.333 682.667h-64v-256l202.667-121.6 32 52.48-170.667 101.12zM739.712 946.773l196.565-164.053-54.613-65.493-196.693 163.968zM284.288 946.773l54.699-65.536-196.608-164.011-54.613 65.536zM512 853.333c-212.080-0.012-384-171.94-384-384.021 0-212.089 171.932-384.021 384.021-384.021 0.008 0 0.015 0 0.023 0h-0.001c212.080 0.012 384 171.94 384 384.021 0 212.089-171.932 384.021-384.021 384.021-0.008 0-0.015 0-0.023 0h0.001zM512 170.667c-164.693 0-298.667 133.973-298.667 298.667s133.973 298.667 298.667 298.667 298.667-133.973 298.667-298.667-133.973-298.667-298.667-298.667z" />
<glyph unicode="&#xe92c;" glyph-name="alarm_add" data-tags="alarm_add" d="M739.712 946.773l196.565-164.053-54.613-65.493-196.693 163.968zM284.288 946.773l54.699-65.536-196.608-164.011-54.613 65.536zM512 853.333c-212.080-0.012-384-171.94-384-384.021 0-212.089 171.932-384.021 384.021-384.021 0.008 0 0.015 0 0.023 0h-0.001c212.080 0.012 384 171.94 384 384.021 0 212.089-171.932 384.021-384.021 384.021-0.008 0-0.015 0-0.023 0h0.001zM512 170.667c-164.693 0-298.667 133.973-298.667 298.667s133.973 298.667 298.667 298.667 298.667-133.973 298.667-298.667-133.973-298.667-298.667-298.667zM554.667 640h-85.333v-128h-128v-85.333h128v-128h85.333v128h128v85.333h-128z" />
<glyph unicode="&#xe92d;" glyph-name="alarm_off" data-tags="alarm_off" d="M428.373 755.627c26.453 7.68 54.613 12.373 83.627 12.373 164.693 0 298.667-133.973 298.667-298.667 0-29.013-4.693-57.173-12.373-83.627l66.56-66.56c20.053 46.080 31.147 96.853 31.147 150.187 0 0.015 0 0.032 0 0.050 0 212.077-171.923 384-384 384-54.416 0-106.189-11.319-153.092-31.731l2.479 0.961 66.987-66.987zM739.712 946.773l196.565-164.053-54.613-65.493-196.693 163.968zM128.853 934.4l-60.16-60.16 58.453-58.453-39.253-32.853 54.613-65.707 45.227 37.547 34.133-34.133c-58.31-66.775-93.867-154.724-93.867-250.979 0-0.115 0-0.23 0-0.346v0.018c0-212.077 171.923-384 384-384v0c96 0 183.893 35.413 251.307 93.867l89.6-89.6 60.16 60.16-784.213 784.64zM512 170.667c-164.693 0-298.667 133.973-298.667 298.667 0 72.533 26.027 139.093 69.12 190.72l420.267-420.267c-51.143-42.997-117.719-69.12-190.396-69.12-0.114 0-0.228 0-0.341 0h0.018zM319.147 864.853l19.627 16.213-54.613 65.707-25.6-21.333z" />
<glyph unicode="&#xe92e;" glyph-name="alarm_on" data-tags="alarm_on" d="M449.707 404.053l-90.88 90.88-45.227-45.227 135.68-135.68 256 256-45.227 45.227zM739.712 946.773l196.565-164.053-54.613-65.493-196.693 163.968zM284.288 946.773l54.699-65.536-196.608-164.011-54.613 65.536zM512 853.333c-212.080-0.012-384-171.94-384-384.021 0-212.089 171.932-384.021 384.021-384.021 0.008 0 0.015 0 0.023 0h-0.001c212.080 0.012 384 171.94 384 384.021 0 212.089-171.932 384.021-384.021 384.021-0.008 0-0.015 0-0.023 0h0.001zM512 170.667c-164.693 0-298.667 133.973-298.667 298.667s133.973 298.667 298.667 298.667 298.667-133.973 298.667-298.667-133.973-298.667-298.667-298.667z" />
<glyph unicode="&#xe92f;" glyph-name="album" data-tags="album" d="M512 938.667c-235.52 0-426.667-191.147-426.667-426.667s191.147-426.667 426.667-426.667 426.667 191.147 426.667 426.667-191.147 426.667-426.667 426.667zM512 320c-106.24 0-192 85.76-192 192s85.76 192 192 192 192-85.76 192-192-85.76-192-192-192zM512 554.667c-23.467 0-42.667-19.2-42.667-42.667s19.2-42.667 42.667-42.667 42.667 19.2 42.667 42.667-19.2 42.667-42.667 42.667z" />
<glyph unicode="&#xe930;" glyph-name="all_inbox" data-tags="all_inbox" d="M896 896h-768v-469.333h768v469.333zM810.667 640h-170.667c0-69.12-58.88-128-128-128s-128 58.88-128 128h-170.667v170.667h597.333v-170.667zM640 341.333h256v-213.333h-768v213.333h256c0-70.827 57.173-128 128-128s128 57.173 128 128z" />
<glyph unicode="&#xe931;" glyph-name="all_inclusive" data-tags="all_inclusive" d="M793.6 741.547c-61.44 0-119.467-23.893-160.853-65.28l-299.947-266.24c-27.307-27.307-63.573-42.24-102.4-42.24-79.787 0-144.64 64.427-144.64 144.213s64.853 144.213 144.64 144.213c38.827 0 75.093-14.933 104.107-43.947l48.213-42.667 64.427 57.173-53.76 47.36c-41.493 41.646-98.896 67.414-162.318 67.414-0.235 0-0.47 0-0.705-0.001h0.037c-127.147 0-230.4-103.253-230.4-229.547s103.253-229.547 230.4-229.547c61.44 0 119.467 23.893 160.853 65.28l299.947 266.24c27.307 27.307 63.573 42.24 102.4 42.24 79.787 0 144.64-64.427 144.64-144.213s-64.853-144.213-144.64-144.213c-38.4 0-75.093 14.933-104.107 43.947l-48.64 43.093-64.427-57.173 54.187-47.787c41.554-41.395 98.876-66.988 162.175-66.988 0.285 0 0.571 0.001 0.856 0.002h-0.044c127.147 0 230.4 102.827 230.4 229.547s-103.253 229.12-230.4 229.12z" />
<glyph unicode="&#xe932;" glyph-name="all_out" data-tags="all_out" d="M170.667 853.333v-170.667l170.667 170.667zM682.667 853.333l170.667-170.667v170.667zM853.333 170.667v170.667l-170.667-170.667zM170.667 170.667h170.667l-170.667 170.667zM810.667 512c0 165.12-133.547 298.667-298.667 298.667s-298.667-133.547-298.667-298.667 133.547-298.667 298.667-298.667 298.667 133.547 298.667 298.667zM512 298.667c-117.76 0-213.333 95.573-213.333 213.333s95.573 213.333 213.333 213.333 213.333-95.573 213.333-213.333-95.573-213.333-213.333-213.333z" />
<glyph unicode="&#xe933;" glyph-name="alternate_email" data-tags="alternate_email" d="M512 938.667c-235.52 0-426.667-191.147-426.667-426.667s191.147-426.667 426.667-426.667h213.333v85.333h-213.333c-185.173 0-341.333 156.16-341.333 341.333s156.16 341.333 341.333 341.333 341.333-156.16 341.333-341.333v-61.013c0-33.707-30.293-66.987-64-66.987s-64 33.28-64 66.987v61.013c0 117.76-95.573 213.333-213.333 213.333s-213.333-95.573-213.333-213.333 95.573-213.333 213.333-213.333c58.88 0 112.64 23.893 151.040 62.72 27.733-37.973 75.52-62.72 126.293-62.72 84.053 0 149.333 68.267 149.333 152.32v61.013c0 235.52-191.147 426.667-426.667 426.667zM512 384c-70.827 0-128 57.173-128 128s57.173 128 128 128 128-57.173 128-128-57.173-128-128-128z" />
<glyph unicode="&#xe934;" glyph-name="android" data-tags="android" d="M256 256c0-23.467 19.2-42.667 42.667-42.667h42.667v-149.333c0-35.413 28.587-64 64-64s64 28.587 64 64v149.333h85.333v-149.333c0-35.413 28.587-64 64-64s64 28.587 64 64v149.333h42.667c23.467 0 42.667 19.2 42.667 42.667v426.667h-512v-426.667zM149.333 682.667c-35.413 0-64-28.587-64-64v-298.667c0-35.413 28.587-64 64-64s64 28.587 64 64v298.667c0 35.413-28.587 64-64 64zM874.667 682.667c-35.413 0-64-28.587-64-64v-298.667c0-35.413 28.587-64 64-64s64 28.587 64 64v298.667c0 35.413-28.587 64-64 64zM662.613 931.84l55.467 55.467c8.533 8.533 8.533 21.76 0 30.293s-21.76 8.533-30.293 0l-63.147-63.147c-32.758 16.945-71.506 26.88-112.575 26.88-0.023 0-0.046 0-0.069 0h0.004c-40.96 0-79.36-9.813-113.493-26.88l-63.573 63.147c-8.533 8.533-21.76 8.533-30.293 0s-8.533-21.76 0-30.293l55.893-55.893c-63.682-46.98-104.533-121.727-104.533-206.015 0-0.023 0-0.046 0-0.069v0.004h512c0 84.907-41.387 160-105.387 206.507zM426.667 810.667h-42.667v42.667h42.667v-42.667zM640 810.667h-42.667v42.667h42.667v-42.667z" />
<glyph unicode="&#xe935;" glyph-name="announcement" data-tags="announcement" d="M938.667 938.667h-853.333v-853.333l170.667 170.667h682.667v682.667zM554.667 554.667h-85.333v256h85.333v-256zM554.667 384h-85.333v85.333h85.333v-85.333z" />
<glyph unicode="&#xe936;" glyph-name="apps" data-tags="apps" d="M170.667 682.667h170.667v170.667h-170.667v-170.667zM426.667 170.667h170.667v170.667h-170.667v-170.667zM170.667 170.667h170.667v170.667h-170.667v-170.667zM170.667 426.667h170.667v170.667h-170.667v-170.667zM426.667 426.667h170.667v170.667h-170.667v-170.667zM682.667 853.333v-170.667h170.667v170.667h-170.667zM426.667 682.667h170.667v170.667h-170.667v-170.667zM682.667 426.667h170.667v170.667h-170.667v-170.667zM682.667 170.667h170.667v170.667h-170.667v-170.667z" />
<glyph unicode="&#xe937;" glyph-name="archive" data-tags="archive" d="M798.293 896h-572.587l-97.707-119.040v-648.96h768v648.96l-97.707 119.040zM512 277.333l-234.667 234.667h149.333v85.333h170.667v-85.333h149.333l-234.667-234.667zM218.453 810.667l34.56 42.667h512l40.107-42.667h-586.667z" />
<glyph unicode="&#xe938;" glyph-name="arrow_back" data-tags="arrow_back" d="M853.333 554.667h-519.253l238.507 238.507-60.587 60.16-341.333-341.333 341.333-341.333 60.16 60.16-238.080 238.507h519.253v85.333z" />
<glyph unicode="&#xe939;" glyph-name="arrow_back_ios" data-tags="arrow_back_ios" d="M747.093 858.88l-75.947 75.52-421.973-422.4 422.4-422.4 75.52 75.52-346.88 346.88 346.88 346.88z" />
<glyph unicode="&#xe93a;" glyph-name="arrow_downward" data-tags="arrow_downward" d="M853.333 512l-60.16 60.16-238.507-238.080v519.253h-85.333v-519.253l-238.080 238.507-60.587-60.587 341.333-341.333 341.333 341.333z" />
<glyph unicode="&#xe93b;" glyph-name="arrow_drop_down" data-tags="arrow_drop_down" d="M298.667 597.333l213.333-213.333 213.333 213.333h-426.667z" />
<glyph unicode="&#xe93c;" glyph-name="arrow_drop_down_circle" data-tags="arrow_drop_down_circle" d="M512 938.667c-235.52 0-426.667-191.147-426.667-426.667s191.147-426.667 426.667-426.667 426.667 191.147 426.667 426.667-191.147 426.667-426.667 426.667zM512 384l-170.667 170.667h341.333l-170.667-170.667z" />
<glyph unicode="&#xe93d;" glyph-name="arrow_drop_up" data-tags="arrow_drop_up" d="M298.667 426.667l213.333 213.333 213.333-213.333h-426.667z" />
<glyph unicode="&#xe93e;" glyph-name="arrow_forward" data-tags="arrow_forward" d="M512 853.333l-60.16-60.16 238.080-238.507h-519.253v-85.333h519.253l-238.080-238.507 60.16-60.16 341.333 341.333-341.333 341.333z" />
<glyph unicode="&#xe93f;" glyph-name="arrow_forward_ios" data-tags="arrow_forward_ios" d="M276.907 165.12l75.52-75.52 422.4 422.4-422.4 422.4-75.52-75.52 346.88-346.88-346.88-346.88z" />
<glyph unicode="&#xe940;" glyph-name="arrow_left" data-tags="arrow_left" d="M597.333 725.333l-213.333-213.333 213.333-213.333v426.667z" />
<glyph unicode="&#xe941;" glyph-name="arrow_right" data-tags="arrow_right" d="M426.667 298.667l213.333 213.333-213.333 213.333v-426.667z" />
<glyph unicode="&#xe942;" glyph-name="arrow_right_alt" data-tags="arrow_right_alt" d="M683.093 554.667h-512.427v-85.333h512.427v-128l170.24 170.667-170.24 170.667v-128z" />
<glyph unicode="&#xe943;" glyph-name="arrow_upward" data-tags="arrow_upward" d="M170.667 512l60.16-60.16 238.507 238.080v-519.253h85.333v519.253l238.080-238.507 60.587 60.587-341.333 341.333-341.333-341.333z" />
<glyph unicode="&#xe944;" glyph-name="art_track" data-tags="art_track" d="M938.667 469.333h-341.333v85.333h341.333v-85.333zM938.667 725.333h-341.333v-85.333h341.333v85.333zM597.333 298.667h341.333v85.333h-341.333v-85.333zM512 725.333v-426.667h-426.667v426.667h426.667zM448 384l-96 128-74.667-96.427-53.333 64.427-74.667-96h298.667z" />
<glyph unicode="&#xe945;" glyph-name="aspect_ratio" data-tags="aspect_ratio" d="M810.667 512h-85.333v-128h-128v-85.333h213.333v213.333zM298.667 640h128v85.333h-213.333v-213.333h85.333v128zM981.333 896h-938.667v-768h938.667v768zM896 212.907h-768v598.187h768v-598.187z" />
<glyph unicode="&#xe946;" glyph-name="assessment" data-tags="assessment" d="M896 896h-768v-768h768v768zM384 298.667h-85.333v298.667h85.333v-298.667zM554.667 298.667h-85.333v426.667h85.333v-426.667zM725.333 298.667h-85.333v170.667h85.333v-170.667z" />
<glyph unicode="&#xe947;" glyph-name="assignment" data-tags="assignment" d="M896 896h-263.68c-17.92 49.493-64.853 85.333-120.32 85.333s-102.4-35.84-120.32-85.333h-263.68v-768h768v768zM512 896c23.467 0 42.667-19.2 42.667-42.667s-19.2-42.667-42.667-42.667-42.667 19.2-42.667 42.667 19.2 42.667 42.667 42.667zM597.333 298.667h-298.667v85.333h298.667v-85.333zM725.333 469.333h-426.667v85.333h426.667v-85.333zM725.333 640h-426.667v85.333h426.667v-85.333z" />
<glyph unicode="&#xe948;" glyph-name="assignment_ind" data-tags="assignment_ind" d="M896 896h-263.68c-17.92 49.493-64.853 85.333-120.32 85.333s-102.4-35.84-120.32-85.333h-263.68v-768h768v768zM512 896c23.467 0 42.667-19.2 42.667-42.667s-19.2-42.667-42.667-42.667-42.667 19.2-42.667 42.667 19.2 42.667 42.667 42.667zM512 725.333c70.827 0 128-57.173 128-128s-57.173-128-128-128-128 57.173-128 128 57.173 128 128 128zM768 213.333h-512v59.733c0 85.333 170.667 132.267 256 132.267s256-46.933 256-132.267v-59.733z" />
<glyph unicode="&#xe949;" glyph-name="assignment_late" data-tags="assignment_late" d="M896 896h-263.68c-17.92 49.493-64.853 85.333-120.32 85.333s-102.4-35.84-120.32-85.333h-263.68v-768h768v768zM554.667 256h-85.333v85.333h85.333v-85.333zM554.667 426.667h-85.333v256h85.333v-256zM512 810.667c-23.467 0-42.667 19.2-42.667 42.667s19.2 42.667 42.667 42.667 42.667-19.2 42.667-42.667-19.2-42.667-42.667-42.667z" />
<glyph unicode="&#xe94a;" glyph-name="assignment_return" data-tags="assignment_return" d="M896 896h-263.68c-17.92 49.493-64.853 85.333-120.32 85.333s-102.4-35.84-120.32-85.333h-263.68v-768h768v768zM512 896c23.467 0 42.667-19.2 42.667-42.667s-19.2-42.667-42.667-42.667-42.667 19.2-42.667 42.667 19.2 42.667 42.667 42.667zM682.667 384h-170.667v-128l-213.333 213.333 213.333 213.333v-128h170.667v-170.667z" />
<glyph unicode="&#xe94b;" glyph-name="assignment_returned" data-tags="assignment_returned" d="M896 896h-263.68c-17.92 49.493-64.853 85.333-120.32 85.333s-102.4-35.84-120.32-85.333h-263.68v-768h768v768zM512 896c23.467 0 42.667-19.2 42.667-42.667s-19.2-42.667-42.667-42.667-42.667 19.2-42.667 42.667 19.2 42.667 42.667 42.667zM512 256l-213.333 213.333h128v170.667h170.667v-170.667h128l-213.333-213.333z" />
<glyph unicode="&#xe94c;" glyph-name="assignment_turned_in" data-tags="assignment_turned_in" d="M896 896h-263.68c-17.92 49.493-64.853 85.333-120.32 85.333s-102.4-35.84-120.32-85.333h-263.68v-768h768v768zM512 896c23.467 0 42.667-19.2 42.667-42.667s-19.2-42.667-42.667-42.667-42.667 19.2-42.667 42.667 19.2 42.667 42.667 42.667zM426.667 298.667l-170.667 170.667 60.16 60.16 110.507-110.080 281.173 281.173 60.16-60.587-341.333-341.333z" />
<glyph unicode="&#xe94d;" glyph-name="assistant" data-tags="assistant" d="M896 938.667h-768v-768h256l128-128 128 128h256v768zM592.213 474.453l-80.213-175.787-80.213 175.787-175.787 80.213 175.787 80.213 80.213 175.787 80.213-175.787 175.787-80.213-175.787-80.213z" />
<glyph unicode="&#xe94e;" glyph-name="assistant_photo" data-tags="assistant_photo" d="M614.4 768l-17.067 85.333h-384v-725.333h85.333v298.667h238.933l17.067-85.333h298.667v426.667h-238.933z" />
<glyph unicode="&#xe94f;" glyph-name="atm" data-tags="atm" d="M341.333 640v-64h96v-192h64v192h96v64h-256zM298.667 640h-213.333v-256h64v64h85.333v-64h64v256zM234.667 512h-85.333v64h85.333v-64zM938.667 640h-277.333v-256h64v192h42.667v-149.333h64v149.76h42.667v-192.427h64v256z" />
<glyph unicode="&#xe950;" glyph-name="attach_file" data-tags="attach_file" d="M704 768v-490.667c0-94.293-76.373-170.667-170.667-170.667s-170.667 76.373-170.667 170.667v533.333c0 58.91 47.756 106.667 106.667 106.667s106.667-47.756 106.667-106.667v0-448c0-23.467-19.2-42.667-42.667-42.667s-42.667 19.2-42.667 42.667v405.333h-64v-405.333c0-58.91 47.756-106.667 106.667-106.667s106.667 47.756 106.667 106.667v0 448c0 94.293-76.373 170.667-170.667 170.667s-170.667-76.373-170.667-170.667v-533.333c0-129.707 104.96-234.667 234.667-234.667s234.667 104.96 234.667 234.667v490.667h-64z" />
<glyph unicode="&#xe951;" glyph-name="attach_money" data-tags="attach_money" d="M503.467 558.933c-96.853 25.173-128 51.2-128 91.733 0 46.507 43.093 78.933 115.2 78.933 75.947 0 104.107-36.267 106.667-89.6h94.293c-2.987 73.387-47.787 140.8-136.96 162.56v93.44h-128v-92.16c-82.773-17.92-149.333-71.68-149.333-154.027 0-98.56 81.493-147.627 200.533-176.213 106.667-25.6 128-63.147 128-102.827 0-29.44-20.907-76.373-115.2-76.373-87.893 0-122.453 39.253-127.147 89.6h-93.867c5.12-93.44 75.093-145.92 157.013-163.413v-92.587h128v91.733c83.2 15.787 149.333 64 149.333 151.467 0 121.173-103.68 162.56-200.533 187.733z" />
<glyph unicode="&#xe952;" glyph-name="attachment" data-tags="attachment" d="M789.333 341.333h-490.667c-94.293 0-170.667 76.373-170.667 170.667s76.373 170.667 170.667 170.667h533.333c58.91 0 106.667-47.756 106.667-106.667s-47.756-106.667-106.667-106.667v0h-448c-23.467 0-42.667 19.2-42.667 42.667s19.2 42.667 42.667 42.667h405.333v64h-405.333c-58.91 0-106.667-47.756-106.667-106.667s47.756-106.667 106.667-106.667v0h448c94.293 0 170.667 76.373 170.667 170.667s-76.373 170.667-170.667 170.667h-533.333c-129.707 0-234.667-104.96-234.667-234.667s104.96-234.667 234.667-234.667h490.667v64z" />
<glyph unicode="&#xe953;" glyph-name="audiotrack" data-tags="audiotrack" d="M512 896v-450.133c-25.173 14.507-54.187 23.467-85.333 23.467-94.293 0-170.667-76.373-170.667-170.667s76.373-170.667 170.667-170.667 170.667 76.373 170.667 170.667v426.667h170.667v170.667h-256z" />
<glyph unicode="&#xe954;" glyph-name="autorenew" data-tags="autorenew" d="M512 768v-128l170.667 170.667-170.667 170.667v-128c-188.587 0-341.333-152.747-341.333-341.333 0-66.987 19.627-129.28 52.907-181.76l62.293 62.293c-18.806 34.307-29.868 75.168-29.868 118.613 0 0.3 0.001 0.6 0.002 0.9v-0.046c0 141.227 114.773 256 256 256zM800.427 693.76l-62.293-62.293c18.773-35.84 29.867-76.373 29.867-119.467 0-141.227-114.773-256-256-256v128l-170.667-170.667 170.667-170.667v128c188.587 0 341.333 152.747 341.333 341.333 0 66.987-19.627 129.28-52.907 181.76z" />
<glyph unicode="&#xe955;" glyph-name="av_timer" data-tags="av_timer" d="M469.333 298.667c0-23.467 19.2-42.667 42.667-42.667s42.667 19.2 42.667 42.667-19.2 42.667-42.667 42.667-42.667-19.2-42.667-42.667zM469.333 896v-170.667h85.333v81.92c144.64-20.907 256-144.64 256-295.253 0-165.12-133.547-298.667-298.667-298.667s-298.667 133.547-298.667 298.667c0 71.68 25.173 137.387 67.413 188.587l231.253-231.253 60.16 60.16-290.133 290.133v-0.853c-93.44-69.973-154.027-180.907-154.027-306.773 0-212.053 171.52-384 384-384 212.077 0 384 171.923 384 384s-171.923 384-384 384v0h-42.667zM768 512c0 23.467-19.2 42.667-42.667 42.667s-42.667-19.2-42.667-42.667 19.2-42.667 42.667-42.667 42.667 19.2 42.667 42.667zM256 512c0-23.467 19.2-42.667 42.667-42.667s42.667 19.2 42.667 42.667-19.2 42.667-42.667 42.667-42.667-19.2-42.667-42.667z" />
<glyph unicode="&#xe956;" glyph-name="backspace" data-tags="backspace" d="M1024 896h-768l-256-384 256-384h768v768zM810.667 358.827l-60.16-60.16-153.173 153.173-153.173-153.173-60.16 60.16 153.173 153.173-153.173 153.173 60.16 60.16 153.173-153.173 153.173 153.173 60.16-60.16-153.173-153.173 153.173-153.173z" />
<glyph unicode="&#xe957;" glyph-name="backup" data-tags="backup" d="M825.6 595.627c-29.96 147.919-158.923 257.707-313.528 257.707-0.025 0-0.051 0-0.076 0h0.004c-123.307 0-230.4-69.973-283.733-172.373-128.922-14.339-228.267-122.7-228.267-254.264 0-0.010 0-0.021 0-0.031v0.001c0-141.227 114.773-256 256-256h554.667c117.76 0 213.333 95.573 213.333 213.333 0 112.64-87.467 203.947-198.4 211.627zM597.333 469.333v-170.667h-170.667v170.667h-128l213.333 213.333 213.333-213.333h-128z" />
<glyph unicode="&#xe958;" glyph-name="ballot" data-tags="ballot" d="M554.667 618.667h213.333v85.333h-213.333v-85.333zM554.667 320h213.333v85.333h-213.333v-85.333zM896 128h-768v768h768v-768zM256 554.667h213.333v213.333h-213.333v-213.333zM298.667 725.333h128v-128h-128v128zM256 256h213.333v213.333h-213.333v-213.333zM298.667 426.667h128v-128h-128v128z" />
<glyph unicode="&#xe959;" glyph-name="bar_chart" data-tags="bar_chart" d="M213.333 631.467h128v-418.133h-128v418.133zM452.267 810.667h119.467v-597.333h-119.467v597.333zM691.2 469.333h119.467v-256h-119.467v256z" />
<glyph unicode="&#xe95a;" d="M298.667 298.667v-213.333h426.667v213.333h-426.667z" />
<glyph unicode="&#xe95b;" d="M725.333 853.333h-128v85.333h-170.667v-85.333h-128v-554.667h426.667v554.667z" />
<glyph unicode="&#xe95c;" d="M725.333 853.333h-128v85.333h-170.667v-85.333h-128v-469.333h426.667v469.333z" />
<glyph unicode="&#xe95d;" d="M298.667 384v-298.667h426.667v298.667h-426.667z" />
<glyph unicode="&#xe95e;" d="M725.333 853.333h-128v85.333h-170.667v-85.333h-128v-384h426.667v384z" />
<glyph unicode="&#xe95f;" d="M298.667 469.333v-384h426.667v384h-426.667z" />
<glyph unicode="&#xe960;" d="M725.333 853.333h-128v85.333h-170.667v-85.333h-128v-298.667h426.667v298.667z" />
<glyph unicode="&#xe961;" d="M298.667 554.667v-469.333h426.667v469.333h-426.667z" />
<glyph unicode="&#xe962;" d="M725.333 853.333h-128v85.333h-170.667v-85.333h-128v-213.333h426.667v213.333z" />
<glyph unicode="&#xe963;" d="M298.667 640v-554.667h426.667v554.667h-426.667z" />
<glyph unicode="&#xe964;" d="M725.333 853.333h-128v85.333h-170.667v-85.333h-128v-170.667h426.667v170.667z" />
<glyph unicode="&#xe965;" d="M298.667 682.667v-597.333h426.667v597.333h-426.667z" />
<glyph unicode="&#xe966;" glyph-name="battery_alert" data-tags="battery_alert" d="M725.333 853.333h-128v85.333h-170.667v-85.333h-128v-768h426.667v768zM554.667 256h-85.333v85.333h85.333v-85.333zM554.667 426.667h-85.333v213.333h85.333v-213.333z" />
<glyph unicode="&#xe967;" d="M469.333 170.667v128h-170.667v-213.333h426.667v213.333h-187.733l-68.267-128z" />
<glyph unicode="&#xe968;" d="M725.333 853.333h-128v85.333h-170.667v-85.333h-128v-554.667h170.667v106.667h-85.333l170.667 320v-234.667h85.333l-102.4-192h187.733v554.667z" />
<glyph unicode="&#xe969;" d="M725.333 853.333h-128v85.333h-170.667v-85.333h-128v-448h85.333l170.667 320v-234.667h85.333l-45.653-85.333h130.987v448z" />
<glyph unicode="&#xe96a;" d="M469.333 170.667v234.667h-170.667v-320h426.667v320h-130.987l-125.013-234.667z" />
<glyph unicode="&#xe96b;" d="M617.387 448l-148.053-277.333v234.667h-85.333l22.613 42.667h-107.947v-362.667h426.667v362.667h-107.947z" />
<glyph unicode="&#xe96c;" d="M725.333 853.333h-128v85.333h-170.667v-85.333h-128v-405.333h107.947l148.053 277.333v-234.667h85.333l-22.613-42.667h107.947v405.333z" />
<glyph unicode="&#xe96d;" d="M725.333 853.333h-128v85.333h-170.667v-85.333h-128v-298.667h165.12l90.88 170.667v-170.667h170.667v298.667z" />
<glyph unicode="&#xe96e;" d="M554.667 490.667h85.333l-170.667-320v234.667h-85.333l79.787 149.333h-165.12v-469.333h426.667v469.333h-170.667v-64z" />
<glyph unicode="&#xe96f;" d="M725.333 853.333h-128v85.333h-170.667v-85.333h-128v-213.333h210.347l45.653 85.333v-85.333h170.667v213.333z" />
<glyph unicode="&#xe970;" d="M554.667 490.667h85.333l-170.667-320v234.667h-85.333l125.013 234.667h-210.347v-554.667h426.667v554.667h-170.667v-149.333z" />
<glyph unicode="&#xe971;" d="M725.333 853.333h-128v85.333h-170.667v-85.333h-128v-170.667h233.387l22.613 42.667v-42.667h170.667v170.667z" />
<glyph unicode="&#xe972;" d="M554.667 490.667h85.333l-170.667-320v234.667h-85.333l148.053 277.333h-233.387v-597.333h426.667v597.333h-170.667v-192z" />
<glyph unicode="&#xe973;" glyph-name="battery_charging_full" data-tags="battery_charging_full" d="M725.333 853.333h-128v85.333h-170.667v-85.333h-128v-768h426.667v768zM469.333 170.667v234.667h-85.333l170.667 320v-234.667h85.333l-170.667-320z" />
<glyph unicode="&#xe974;" glyph-name="battery_full" data-tags="battery_full" d="M725.333 853.333h-128v85.333h-170.667v-85.333h-128v-768h426.667v768z" />
<glyph unicode="&#xe975;" glyph-name="battery_std" data-tags="battery_std" d="M725.333 853.333h-128v85.333h-170.667v-85.333h-128v-768h426.667v768z" />
<glyph unicode="&#xe976;" glyph-name="battery_unknown" data-tags="battery_unknown" d="M668.587 853.333h-71.253v85.333h-170.667v-85.333h-71.253c-31.147 0-56.747-25.6-56.747-56.747v-654.080c0-31.573 25.6-57.173 56.747-57.173h312.747c31.573 0 57.173 25.6 57.173 56.747v654.507c0 31.147-25.6 56.747-56.747 56.747zM554.667 256h-85.333v85.333h85.333v-85.333zM610.133 482.56s-16.213-17.92-28.587-30.293c-20.48-20.48-35.413-49.067-35.413-68.267h-68.267c0 35.413 19.627 64.853 39.68 85.333l39.68 40.107c11.637 11.578 18.838 27.604 18.838 45.312 0 35.299-28.616 63.915-63.915 63.915-0.053 0-0.106 0-0.158 0h0.008c-35.413 0-64-28.587-64-64h-64c0 70.827 57.173 128 128 128s128-57.173 128-128c0-28.16-11.52-53.76-29.867-72.107z" />
<glyph unicode="&#xe977;" glyph-name="beach_access" data-tags="beach_access" d="M253.867 768.853c-168.107-168.533-167.68-441.6 0.853-610.133l122.027 122.027c-133.547 133.547-178.347 320.427-122.88 488.107zM743.253 647.253l122.027 122.027c-168.533 168.533-441.6 168.96-610.133 0.853 167.68 55.467 354.56 10.667 488.107-122.88zM254.72 769.707l-0.427-0.427c-16.213-128.427 49.92-293.547 183.467-427.52l244.48 244.48c-133.547 133.547-299.093 199.68-427.52 183.467zM560.043 402.773l60.928 60.928 274.859-274.859-61.013-60.928z" />
<glyph unicode="&#xe978;" glyph-name="beenhere" data-tags="beenhere" d="M128.427 981.333l-0.427-682.667 384-256 383.573 256 0.427 682.667h-767.573zM426.667 341.333l-213.333 213.333 60.16 60.587 153.173-153.173 323.84 323.84 60.16-60.587-384-384z" />
<glyph unicode="&#xe979;" glyph-name="block" data-tags="block" d="M512 938.667c-235.52 0-426.667-191.147-426.667-426.667s191.147-426.667 426.667-426.667 426.667 191.147 426.667 426.667-191.147 426.667-426.667 426.667zM170.667 512c0 188.587 152.747 341.333 341.333 341.333 78.933 0 151.467-26.88 209.067-72.107l-478.293-478.293c-44.949 56.762-72.107 129.4-72.107 208.381 0 0.241 0 0.482 0.001 0.722v-0.037zM512 170.667c-78.933 0-151.467 26.88-209.067 72.107l478.293 478.293c44.949-56.762 72.107-129.4 72.107-208.381 0-0.241 0-0.482-0.001-0.722v0.037c0-188.587-152.747-341.333-341.333-341.333z" />
<glyph unicode="&#xe97a;" glyph-name="bluetooth" data-tags="bluetooth" d="M755.627 695.040l-243.627 243.627h-42.667v-323.84l-195.84 195.84-60.16-60.16 238.507-238.507-238.507-238.507 60.16-60.16 195.84 195.84v-323.84h42.667l243.627 243.627-183.467 183.040 183.467 183.040zM554.667 775.253l80.213-80.213-80.213-80.213v160.427zM634.88 328.96l-80.213-80.213v160.427l80.213-80.213z" />
<glyph unicode="&#xe97b;" glyph-name="bluetooth_audio" data-tags="bluetooth_audio" d="M607.573 511.573l98.987-98.987c11.947 30.72 18.773 64.427 18.773 99.413s-6.827 67.84-18.347 98.56l-99.413-98.987zM833.28 737.707l-53.76-53.76c26.88-51.627 41.813-109.653 41.813-171.52s-15.36-120.32-41.813-171.52l51.2-51.2c41.194 64.185 65.678 142.51 65.707 226.552v0.008c-0.427 80.64-23.467 156.587-63.147 221.44zM670.293 695.040l-243.627 243.627h-42.667v-323.84l-195.84 195.84-60.16-60.16 238.507-238.507-238.507-238.507 60.16-60.16 195.84 195.84v-323.84h42.667l243.627 243.627-183.467 183.040 183.467 183.040zM469.333 775.253l80.213-80.213-80.213-80.213v160.427zM549.547 328.96l-80.213-80.213v160.427l80.213-80.213z" />
<glyph unicode="&#xe97c;" glyph-name="bluetooth_connected" data-tags="bluetooth_connected" d="M298.667 512l-85.333 85.333-85.333-85.333 85.333-85.333 85.333 85.333zM755.627 695.040l-243.627 243.627h-42.667v-323.84l-195.84 195.84-60.16-60.16 238.507-238.507-238.507-238.507 60.16-60.16 195.84 195.84v-323.84h42.667l243.627 243.627-183.467 183.040 183.467 183.040zM554.667 775.253l80.213-80.213-80.213-80.213v160.427zM634.88 328.96l-80.213-80.213v160.427l80.213-80.213zM810.667 597.333l-85.333-85.333 85.333-85.333 85.333 85.333-85.333 85.333z" />
<glyph unicode="&#xe97d;" glyph-name="bluetooth_disabled" data-tags="bluetooth_disabled" d="M554.667 775.253l80.213-80.213-68.267-68.267 60.16-60.16 128.853 128.853-243.627 243.2h-42.667v-214.613l85.333-85.333v136.533zM230.827 853.333l-60.16-60.16 281.173-281.173-238.507-238.507 60.16-60.16 195.84 195.84v-323.84h42.667l183.040 183.040 98.133-97.707 60.16 60.16-622.507 622.507zM554.667 248.747v160.427l80.213-80.213-80.213-80.213z" />
<glyph unicode="&#xe97e;" glyph-name="bluetooth_searching" data-tags="bluetooth_searching" d="M607.573 511.573l98.987-98.987c11.947 30.72 18.773 64.427 18.773 99.413s-6.827 67.84-18.347 98.56l-99.413-98.987zM833.28 737.707l-53.76-53.76c26.88-51.627 41.813-109.653 41.813-171.52s-15.36-120.32-41.813-171.52l51.2-51.2c41.194 64.185 65.678 142.51 65.707 226.552v0.008c-0.427 80.64-23.467 156.587-63.147 221.44zM670.293 695.040l-243.627 243.627h-42.667v-323.84l-195.84 195.84-60.16-60.16 238.507-238.507-238.507-238.507 60.16-60.16 195.84 195.84v-323.84h42.667l243.627 243.627-183.467 183.040 183.467 183.040zM469.333 775.253l80.213-80.213-80.213-80.213v160.427zM549.547 328.96l-80.213-80.213v160.427l80.213-80.213z" />
<glyph unicode="&#xe97f;" glyph-name="blur_circular" data-tags="blur_circular" d="M426.667 640c-23.467 0-42.667-19.2-42.667-42.667s19.2-42.667 42.667-42.667 42.667 19.2 42.667 42.667-19.2 42.667-42.667 42.667zM426.667 469.333c-23.467 0-42.667-19.2-42.667-42.667s19.2-42.667 42.667-42.667 42.667 19.2 42.667 42.667-19.2 42.667-42.667 42.667zM298.667 618.667c-11.947 0-21.333-9.387-21.333-21.333s9.387-21.333 21.333-21.333 21.333 9.387 21.333 21.333-9.387 21.333-21.333 21.333zM426.667 320c-11.947 0-21.333-9.387-21.333-21.333s9.387-21.333 21.333-21.333 21.333 9.387 21.333 21.333-9.387 21.333-21.333 21.333zM298.667 448c-11.947 0-21.333-9.387-21.333-21.333s9.387-21.333 21.333-21.333 21.333 9.387 21.333 21.333-9.387 21.333-21.333 21.333zM426.667 704c11.947 0 21.333 9.387 21.333 21.333s-9.387 21.333-21.333 21.333-21.333-9.387-21.333-21.333 9.387-21.333 21.333-21.333zM597.333 640c-23.467 0-42.667-19.2-42.667-42.667s19.2-42.667 42.667-42.667 42.667 19.2 42.667 42.667-19.2 42.667-42.667 42.667zM597.333 704c11.947 0 21.333 9.387 21.333 21.333s-9.387 21.333-21.333 21.333-21.333-9.387-21.333-21.333 9.387-21.333 21.333-21.333zM725.333 448c-11.947 0-21.333-9.387-21.333-21.333s9.387-21.333 21.333-21.333 21.333 9.387 21.333 21.333-9.387 21.333-21.333 21.333zM725.333 618.667c-11.947 0-21.333-9.387-21.333-21.333s9.387-21.333 21.333-21.333 21.333 9.387 21.333 21.333-9.387 21.333-21.333 21.333zM512 938.667c-235.52 0-426.667-191.147-426.667-426.667s191.147-426.667 426.667-426.667 426.667 191.147 426.667 426.667-191.147 426.667-426.667 426.667zM512 170.667c-188.587 0-341.333 152.747-341.333 341.333s152.747 341.333 341.333 341.333 341.333-152.747 341.333-341.333-152.747-341.333-341.333-341.333zM597.333 320c-11.947 0-21.333-9.387-21.333-21.333s9.387-21.333 21.333-21.333 21.333 9.387 21.333 21.333-9.387 21.333-21.333 21.333zM597.333 469.333c-23.467 0-42.667-19.2-42.667-42.667s19.2-42.667 42.667-42.667 42.667 19.2 42.667 42.667-19.2 42.667-42.667 42.667z" />
<glyph unicode="&#xe980;" glyph-name="blur_linear" data-tags="blur_linear" d="M213.333 277.333c35.413 0 64 28.587 64 64s-28.587 64-64 64-64-28.587-64-64 28.587-64 64-64zM384 469.333c23.467 0 42.667 19.2 42.667 42.667s-19.2 42.667-42.667 42.667-42.667-19.2-42.667-42.667 19.2-42.667 42.667-42.667zM384 640c23.467 0 42.667 19.2 42.667 42.667s-19.2 42.667-42.667 42.667-42.667-19.2-42.667-42.667 19.2-42.667 42.667-42.667zM128 128h768v85.333h-768v-85.333zM213.333 618.667c35.413 0 64 28.587 64 64s-28.587 64-64 64-64-28.587-64-64 28.587-64 64-64zM213.333 448c35.413 0 64 28.587 64 64s-28.587 64-64 64-64-28.587-64-64 28.587-64 64-64zM384 298.667c23.467 0 42.667 19.2 42.667 42.667s-19.2 42.667-42.667 42.667-42.667-19.2-42.667-42.667 19.2-42.667 42.667-42.667zM725.333 320c11.947 0 21.333 9.387 21.333 21.333s-9.387 21.333-21.333 21.333-21.333-9.387-21.333-21.333 9.387-21.333 21.333-21.333zM128 896v-85.333h768v85.333h-768zM725.333 661.333c11.947 0 21.333 9.387 21.333 21.333s-9.387 21.333-21.333 21.333-21.333-9.387-21.333-21.333 9.387-21.333 21.333-21.333zM725.333 490.667c11.947 0 21.333 9.387 21.333 21.333s-9.387 21.333-21.333 21.333-21.333-9.387-21.333-21.333 9.387-21.333 21.333-21.333zM554.667 640c23.467 0 42.667 19.2 42.667 42.667s-19.2 42.667-42.667 42.667-42.667-19.2-42.667-42.667 19.2-42.667 42.667-42.667zM554.667 469.333c23.467 0 42.667 19.2 42.667 42.667s-19.2 42.667-42.667 42.667-42.667-19.2-42.667-42.667 19.2-42.667 42.667-42.667zM554.667 298.667c23.467 0 42.667 19.2 42.667 42.667s-19.2 42.667-42.667 42.667-42.667-19.2-42.667-42.667 19.2-42.667 42.667-42.667z" />
<glyph unicode="&#xe981;" glyph-name="blur_off" data-tags="blur_off" d="M640 768c0-23.564-19.103-42.667-42.667-42.667s-42.667 19.103-42.667 42.667c0 23.564 19.103 42.667 42.667 42.667s42.667-19.103 42.667-42.667zM588.8 534.187l8.533-0.853c35.413 0 64 28.587 64 64s-28.587 64-64 64-64-28.587-64-64l0.853-8.533c3.84-28.587 26.027-50.773 54.613-54.613zM597.333 874.667c11.947 0 21.333 9.387 21.333 21.333s-9.387 21.333-21.333 21.333-21.333-9.387-21.333-21.333 9.387-21.333 21.333-21.333zM426.667 874.667c11.947 0 21.333 9.387 21.333 21.333s-9.387 21.333-21.333 21.333-21.333-9.387-21.333-21.333 9.387-21.333 21.333-21.333zM810.667 597.333c0-23.564-19.103-42.667-42.667-42.667s-42.667 19.103-42.667 42.667c0 23.564 19.103 42.667 42.667 42.667s42.667-19.103 42.667-42.667zM810.667 768c0-23.564-19.103-42.667-42.667-42.667s-42.667 19.103-42.667 42.667c0 23.564 19.103 42.667 42.667 42.667s42.667-19.103 42.667-42.667zM896 576c11.947 0 21.333 9.387 21.333 21.333s-9.387 21.333-21.333 21.333-21.333-9.387-21.333-21.333 9.387-21.333 21.333-21.333zM469.333 768c0-23.564-19.103-42.667-42.667-42.667s-42.667 19.103-42.667 42.667c0 23.564 19.103 42.667 42.667 42.667s42.667-19.103 42.667-42.667zM810.667 426.667c0-23.564-19.103-42.667-42.667-42.667s-42.667 19.103-42.667 42.667c0 23.564 19.103 42.667 42.667 42.667s42.667-19.103 42.667-42.667zM298.667 256c0-23.564-19.103-42.667-42.667-42.667s-42.667 19.103-42.667 42.667c0 23.564 19.103 42.667 42.667 42.667s42.667-19.103 42.667-42.667zM597.333 149.333c-11.947 0-21.333-9.387-21.333-21.333s9.387-21.333 21.333-21.333 21.333 9.387 21.333 21.333-9.387 21.333-21.333 21.333zM896 448c-11.947 0-21.333-9.387-21.333-21.333s9.387-21.333 21.333-21.333 21.333 9.387 21.333 21.333-9.387 21.333-21.333 21.333zM128 448c-11.947 0-21.333-9.387-21.333-21.333s9.387-21.333 21.333-21.333 21.333 9.387 21.333 21.333-9.387 21.333-21.333 21.333zM469.333 256c0-23.564-19.103-42.667-42.667-42.667s-42.667 19.103-42.667 42.667c0 23.564 19.103 42.667 42.667 42.667s42.667-19.103 42.667-42.667zM128 618.667c-11.947 0-21.333-9.387-21.333-21.333s9.387-21.333 21.333-21.333 21.333 9.387 21.333 21.333-9.387 21.333-21.333 21.333zM426.667 149.333c-11.947 0-21.333-9.387-21.333-21.333s9.387-21.333 21.333-21.333 21.333 9.387 21.333 21.333-9.387 21.333-21.333 21.333zM298.667 426.667c0-23.564-19.103-42.667-42.667-42.667s-42.667 19.103-42.667 42.667c0 23.564 19.103 42.667 42.667 42.667s42.667-19.103 42.667-42.667zM106.667 799.147l161.28-161.28-11.947 2.133c-23.467 0-42.667-19.2-42.667-42.667s19.2-42.667 42.667-42.667 42.667 19.2 42.667 42.667c0 4.267-1.28 8.107-2.56 11.947l119.893-119.893c-30.293-4.693-53.333-31.147-53.333-62.72 0-35.413 28.587-64 64-64 31.573 0 58.027 23.040 62.72 53.333l119.893-119.893c-3.521 1.43-7.597 2.351-11.861 2.557l-0.085 0.003c-23.467 0-42.667-19.2-42.667-42.667s19.2-42.667 42.667-42.667 42.667 19.2 42.667 42.667c0 4.267-1.28 8.107-2.56 11.947l161.28-161.28h0.427l60.16 60.16-692.48 692.48-60.16-60.16z" />
<glyph unicode="&#xe982;" glyph-name="blur_on" data-tags="blur_on" d="M256 469.333c-23.467 0-42.667-19.2-42.667-42.667s19.2-42.667 42.667-42.667 42.667 19.2 42.667 42.667-19.2 42.667-42.667 42.667zM256 298.667c-23.467 0-42.667-19.2-42.667-42.667s19.2-42.667 42.667-42.667 42.667 19.2 42.667 42.667-19.2 42.667-42.667 42.667zM256 640c-23.467 0-42.667-19.2-42.667-42.667s19.2-42.667 42.667-42.667 42.667 19.2 42.667 42.667-19.2 42.667-42.667 42.667zM128 618.667c-11.947 0-21.333-9.387-21.333-21.333s9.387-21.333 21.333-21.333 21.333 9.387 21.333 21.333-9.387 21.333-21.333 21.333zM256 810.667c-23.467 0-42.667-19.2-42.667-42.667s19.2-42.667 42.667-42.667 42.667 19.2 42.667 42.667-19.2 42.667-42.667 42.667zM896 576c11.947 0 21.333 9.387 21.333 21.333s-9.387 21.333-21.333 21.333-21.333-9.387-21.333-21.333 9.387-21.333 21.333-21.333zM597.333 725.333c23.467 0 42.667 19.2 42.667 42.667s-19.2 42.667-42.667 42.667-42.667-19.2-42.667-42.667 19.2-42.667 42.667-42.667zM597.333 874.667c11.947 0 21.333 9.387 21.333 21.333s-9.387 21.333-21.333 21.333-21.333-9.387-21.333-21.333 9.387-21.333 21.333-21.333zM128 448c-11.947 0-21.333-9.387-21.333-21.333s9.387-21.333 21.333-21.333 21.333 9.387 21.333 21.333-9.387 21.333-21.333 21.333zM426.667 149.333c-11.947 0-21.333-9.387-21.333-21.333s9.387-21.333 21.333-21.333 21.333 9.387 21.333 21.333-9.387 21.333-21.333 21.333zM426.667 874.667c11.947 0 21.333 9.387 21.333 21.333s-9.387 21.333-21.333 21.333-21.333-9.387-21.333-21.333 9.387-21.333 21.333-21.333zM426.667 725.333c23.467 0 42.667 19.2 42.667 42.667s-19.2 42.667-42.667 42.667-42.667-19.2-42.667-42.667 19.2-42.667 42.667-42.667zM426.667 490.667c-35.413 0-64-28.587-64-64s28.587-64 64-64 64 28.587 64 64-28.587 64-64 64zM768 469.333c-23.467 0-42.667-19.2-42.667-42.667s19.2-42.667 42.667-42.667 42.667 19.2 42.667 42.667-19.2 42.667-42.667 42.667zM768 298.667c-23.467 0-42.667-19.2-42.667-42.667s19.2-42.667 42.667-42.667 42.667 19.2 42.667 42.667-19.2 42.667-42.667 42.667zM768 640c-23.467 0-42.667-19.2-42.667-42.667s19.2-42.667 42.667-42.667 42.667 19.2 42.667 42.667-19.2 42.667-42.667 42.667zM768 810.667c-23.467 0-42.667-19.2-42.667-42.667s19.2-42.667 42.667-42.667 42.667 19.2 42.667 42.667-19.2 42.667-42.667 42.667zM896 448c-11.947 0-21.333-9.387-21.333-21.333s9.387-21.333 21.333-21.333 21.333 9.387 21.333 21.333-9.387 21.333-21.333 21.333zM597.333 298.667c-23.467 0-42.667-19.2-42.667-42.667s19.2-42.667 42.667-42.667 42.667 19.2 42.667 42.667-19.2 42.667-42.667 42.667zM597.333 149.333c-11.947 0-21.333-9.387-21.333-21.333s9.387-21.333 21.333-21.333 21.333 9.387 21.333 21.333-9.387 21.333-21.333 21.333zM426.667 661.333c-35.413 0-64-28.587-64-64s28.587-64 64-64 64 28.587 64 64-28.587 64-64 64zM426.667 298.667c-23.467 0-42.667-19.2-42.667-42.667s19.2-42.667 42.667-42.667 42.667 19.2 42.667 42.667-19.2 42.667-42.667 42.667zM597.333 490.667c-35.413 0-64-28.587-64-64s28.587-64 64-64 64 28.587 64 64-28.587 64-64 64zM597.333 661.333c-35.413 0-64-28.587-64-64s28.587-64 64-64 64 28.587 64 64-28.587 64-64 64z" />
<glyph unicode="&#xe983;" glyph-name="book" data-tags="book" d="M853.333 938.667h-682.667v-853.333h682.667v853.333zM256 853.333h213.333v-341.333l-106.667 64-106.667-64v341.333z" />
<glyph unicode="&#xe984;" glyph-name="bookmark" data-tags="bookmark" d="M810.667 896h-597.333v-768l298.667 128 298.667-128v768z" />
<glyph unicode="&#xe985;" glyph-name="bookmark_border" data-tags="bookmark_border" d="M810.667 896h-597.333v-768l298.667 128 298.667-128v768zM725.333 256l-213.333 93.013-213.333-93.013v554.667h426.667v-554.667z" />
<glyph unicode="&#xe986;" glyph-name="bookmarks" data-tags="bookmarks" d="M810.667 256l85.333-42.667v768h-597.333v-85.333h512v-640zM725.333 810.667h-597.333v-768l298.667 128 298.667-128v768z" />
<glyph unicode="&#xe987;" glyph-name="border_all" data-tags="border_all" d="M128 896v-768h768v768h-768zM469.333 213.333h-256v256h256v-256zM469.333 554.667h-256v256h256v-256zM810.667 213.333h-256v256h256v-256zM810.667 554.667h-256v256h256v-256z" />
<glyph unicode="&#xe988;" glyph-name="border_bottom" data-tags="border_bottom" d="M384 554.667h-85.333v-85.333h85.333v85.333zM554.667 384h-85.333v-85.333h85.333v85.333zM384 896h-85.333v-85.333h85.333v85.333zM554.667 554.667h-85.333v-85.333h85.333v85.333zM213.333 896h-85.333v-85.333h85.333v85.333zM554.667 725.333h-85.333v-85.333h85.333v85.333zM725.333 554.667h-85.333v-85.333h85.333v85.333zM554.667 896h-85.333v-85.333h85.333v85.333zM725.333 896h-85.333v-85.333h85.333v85.333zM810.667 469.333h85.333v85.333h-85.333v-85.333zM810.667 298.667h85.333v85.333h-85.333v-85.333zM213.333 725.333h-85.333v-85.333h85.333v85.333zM810.667 896v-85.333h85.333v85.333h-85.333zM810.667 640h85.333v85.333h-85.333v-85.333zM213.333 554.667h-85.333v-85.333h85.333v85.333zM128 128h768v85.333h-768v-85.333zM213.333 384h-85.333v-85.333h85.333v85.333z" />
<glyph unicode="&#xe989;" glyph-name="border_clear" data-tags="border_clear" d="M298.667 810.667h85.333v85.333h-85.333v-85.333zM298.667 469.333h85.333v85.333h-85.333v-85.333zM298.667 128h85.333v85.333h-85.333v-85.333zM469.333 298.667h85.333v85.333h-85.333v-85.333zM469.333 128h85.333v85.333h-85.333v-85.333zM128 128h85.333v85.333h-85.333v-85.333zM128 298.667h85.333v85.333h-85.333v-85.333zM128 469.333h85.333v85.333h-85.333v-85.333zM128 640h85.333v85.333h-85.333v-85.333zM128 810.667h85.333v85.333h-85.333v-85.333zM469.333 469.333h85.333v85.333h-85.333v-85.333zM810.667 298.667h85.333v85.333h-85.333v-85.333zM810.667 469.333h85.333v85.333h-85.333v-85.333zM810.667 128h85.333v85.333h-85.333v-85.333zM810.667 640h85.333v85.333h-85.333v-85.333zM469.333 640h85.333v85.333h-85.333v-85.333zM810.667 896v-85.333h85.333v85.333h-85.333zM469.333 810.667h85.333v85.333h-85.333v-85.333zM640 128h85.333v85.333h-85.333v-85.333zM640 469.333h85.333v85.333h-85.333v-85.333zM640 810.667h85.333v85.333h-85.333v-85.333z" />
<glyph unicode="&#xe98a;" d="M757.333 682.667l-160 160-426.667-426.667v-160h160l426.667 426.667zM913.493 838.827l-160 160-113.493-113.493 160-160 113.493 113.493z" />
<glyph unicode="&#xe98b;" d="M0 170.667h1024v-170.667h-1024v170.667z" />
<glyph unicode="&#xe98c;" glyph-name="border_horizontal" data-tags="border_horizontal" d="M128 128h85.333v85.333h-85.333v-85.333zM213.333 725.333h-85.333v-85.333h85.333v85.333zM128 298.667h85.333v85.333h-85.333v-85.333zM298.667 128h85.333v85.333h-85.333v-85.333zM213.333 896h-85.333v-85.333h85.333v85.333zM384 896h-85.333v-85.333h85.333v85.333zM725.333 896h-85.333v-85.333h85.333v85.333zM554.667 725.333h-85.333v-85.333h85.333v85.333zM554.667 896h-85.333v-85.333h85.333v85.333zM810.667 298.667h85.333v85.333h-85.333v-85.333zM469.333 128h85.333v85.333h-85.333v-85.333zM128 469.333h768v85.333h-768v-85.333zM810.667 896v-85.333h85.333v85.333h-85.333zM810.667 640h85.333v85.333h-85.333v-85.333zM469.333 298.667h85.333v85.333h-85.333v-85.333zM640 128h85.333v85.333h-85.333v-85.333zM810.667 128h85.333v85.333h-85.333v-85.333z" />
<glyph unicode="&#xe98d;" glyph-name="border_inner" data-tags="border_inner" d="M128 128h85.333v85.333h-85.333v-85.333zM298.667 128h85.333v85.333h-85.333v-85.333zM213.333 725.333h-85.333v-85.333h85.333v85.333zM128 298.667h85.333v85.333h-85.333v-85.333zM384 896h-85.333v-85.333h85.333v85.333zM213.333 896h-85.333v-85.333h85.333v85.333zM725.333 896h-85.333v-85.333h85.333v85.333zM810.667 640h85.333v85.333h-85.333v-85.333zM810.667 896v-85.333h85.333v85.333h-85.333zM640 128h85.333v85.333h-85.333v-85.333zM554.667 896h-85.333v-341.333h-341.333v-85.333h341.333v-341.333h85.333v341.333h341.333v85.333h-341.333v341.333zM810.667 128h85.333v85.333h-85.333v-85.333zM810.667 298.667h85.333v85.333h-85.333v-85.333z" />
<glyph unicode="&#xe98e;" glyph-name="border_left" data-tags="border_left" d="M469.333 128h85.333v85.333h-85.333v-85.333zM469.333 298.667h85.333v85.333h-85.333v-85.333zM469.333 810.667h85.333v85.333h-85.333v-85.333zM469.333 640h85.333v85.333h-85.333v-85.333zM469.333 469.333h85.333v85.333h-85.333v-85.333zM298.667 128h85.333v85.333h-85.333v-85.333zM298.667 810.667h85.333v85.333h-85.333v-85.333zM298.667 469.333h85.333v85.333h-85.333v-85.333zM128 128h85.333v768h-85.333v-768zM810.667 640h85.333v85.333h-85.333v-85.333zM640 128h85.333v85.333h-85.333v-85.333zM810.667 298.667h85.333v85.333h-85.333v-85.333zM810.667 896v-85.333h85.333v85.333h-85.333zM810.667 469.333h85.333v85.333h-85.333v-85.333zM810.667 128h85.333v85.333h-85.333v-85.333zM640 469.333h85.333v85.333h-85.333v-85.333zM640 810.667h85.333v85.333h-85.333v-85.333z" />
<glyph unicode="&#xe98f;" glyph-name="border_outer" data-tags="border_outer" d="M554.667 725.333h-85.333v-85.333h85.333v85.333zM554.667 554.667h-85.333v-85.333h85.333v85.333zM725.333 554.667h-85.333v-85.333h85.333v85.333zM128 896v-768h768v768h-768zM810.667 213.333h-597.333v597.333h597.333v-597.333zM554.667 384h-85.333v-85.333h85.333v85.333zM384 554.667h-85.333v-85.333h85.333v85.333z" />
<glyph unicode="&#xe990;" glyph-name="border_right" data-tags="border_right" d="M298.667 128h85.333v85.333h-85.333v-85.333zM128 810.667h85.333v85.333h-85.333v-85.333zM298.667 810.667h85.333v85.333h-85.333v-85.333zM298.667 469.333h85.333v85.333h-85.333v-85.333zM128 128h85.333v85.333h-85.333v-85.333zM469.333 128h85.333v85.333h-85.333v-85.333zM128 469.333h85.333v85.333h-85.333v-85.333zM128 298.667h85.333v85.333h-85.333v-85.333zM128 640h85.333v85.333h-85.333v-85.333zM469.333 298.667h85.333v85.333h-85.333v-85.333zM640 469.333h85.333v85.333h-85.333v-85.333zM810.667 896v-768h85.333v768h-85.333zM640 128h85.333v85.333h-85.333v-85.333zM640 810.667h85.333v85.333h-85.333v-85.333zM469.333 469.333h85.333v85.333h-85.333v-85.333zM469.333 810.667h85.333v85.333h-85.333v-85.333zM469.333 640h85.333v85.333h-85.333v-85.333z" />
<glyph unicode="&#xe991;" glyph-name="border_style" data-tags="border_style" d="M640 128h85.333v85.333h-85.333v-85.333zM810.667 128h85.333v85.333h-85.333v-85.333zM298.667 128h85.333v85.333h-85.333v-85.333zM469.333 128h85.333v85.333h-85.333v-85.333zM810.667 298.667h85.333v85.333h-85.333v-85.333zM810.667 469.333h85.333v85.333h-85.333v-85.333zM128 896v-768h85.333v682.667h682.667v85.333h-768zM810.667 640h85.333v85.333h-85.333v-85.333z" />
<glyph unicode="&#xe992;" glyph-name="border_top" data-tags="border_top" d="M298.667 128h85.333v85.333h-85.333v-85.333zM298.667 469.333h85.333v85.333h-85.333v-85.333zM469.333 469.333h85.333v85.333h-85.333v-85.333zM469.333 128h85.333v85.333h-85.333v-85.333zM128 298.667h85.333v85.333h-85.333v-85.333zM128 128h85.333v85.333h-85.333v-85.333zM128 469.333h85.333v85.333h-85.333v-85.333zM128 640h85.333v85.333h-85.333v-85.333zM469.333 298.667h85.333v85.333h-85.333v-85.333zM810.667 640h85.333v85.333h-85.333v-85.333zM810.667 469.333h85.333v85.333h-85.333v-85.333zM128 896v-85.333h768v85.333h-768zM810.667 298.667h85.333v85.333h-85.333v-85.333zM640 128h85.333v85.333h-85.333v-85.333zM469.333 640h85.333v85.333h-85.333v-85.333zM810.667 128h85.333v85.333h-85.333v-85.333zM640 469.333h85.333v85.333h-85.333v-85.333z" />
<glyph unicode="&#xe993;" glyph-name="border_vertical" data-tags="border_vertical" d="M128 640h85.333v85.333h-85.333v-85.333zM128 810.667h85.333v85.333h-85.333v-85.333zM298.667 128h85.333v85.333h-85.333v-85.333zM298.667 469.333h85.333v85.333h-85.333v-85.333zM128 469.333h85.333v85.333h-85.333v-85.333zM128 128h85.333v85.333h-85.333v-85.333zM128 298.667h85.333v85.333h-85.333v-85.333zM298.667 810.667h85.333v85.333h-85.333v-85.333zM810.667 298.667h85.333v85.333h-85.333v-85.333zM469.333 128h85.333v768h-85.333v-768zM810.667 128h85.333v85.333h-85.333v-85.333zM810.667 469.333h85.333v85.333h-85.333v-85.333zM810.667 896v-85.333h85.333v85.333h-85.333zM810.667 640h85.333v85.333h-85.333v-85.333zM640 810.667h85.333v85.333h-85.333v-85.333zM640 128h85.333v85.333h-85.333v-85.333zM640 469.333h85.333v85.333h-85.333v-85.333z" />
<glyph unicode="&#xe994;" glyph-name="branding_watermark" data-tags="branding_watermark" d="M981.333 896h-938.667v-768h938.667v768zM896 213.333h-384v256h384v-256z" />
<glyph unicode="&#xe995;" glyph-name="brightness_1" data-tags="brightness_1" d="M938.667 512c0-235.641-191.025-426.667-426.667-426.667s-426.667 191.025-426.667 426.667c0 235.641 191.025 426.667 426.667 426.667s426.667-191.025 426.667-426.667z" />
<glyph unicode="&#xe996;" glyph-name="brightness_2" data-tags="brightness_2" d="M426.667 938.667c-77.653 0-150.613-21.333-213.333-57.6 127.573-73.813 213.333-211.2 213.333-369.067s-85.76-295.253-213.333-369.067c62.72-36.267 135.68-57.6 213.333-57.6 235.52 0 426.667 191.147 426.667 426.667s-191.147 426.667-426.667 426.667z" />
<glyph unicode="&#xe997;" glyph-name="brightness_3" data-tags="brightness_3" d="M384 938.667c-44.8 0-87.467-6.827-128-19.627 173.227-54.187 298.667-215.893 298.667-407.040s-125.44-352.853-298.667-407.040c40.533-12.8 83.2-19.627 128-19.627 235.52 0 426.667 191.147 426.667 426.667s-191.147 426.667-426.667 426.667z" />
<glyph unicode="&#xe998;" glyph-name="brightness_4" data-tags="brightness_4" d="M853.333 653.227v200.107h-200.107l-141.227 141.227-141.227-141.227h-200.107v-200.107l-141.227-141.227 141.227-141.227v-200.107h200.107l141.227-141.227 141.227 141.227h200.107v200.107l141.227 141.227-141.227 141.227zM512 256c-37.973 0-74.24 8.533-106.667 23.467 87.893 40.533 149.333 129.28 149.333 232.533s-61.44 192-149.333 232.533c32.427 14.933 68.693 23.467 106.667 23.467 141.227 0 256-114.773 256-256s-114.773-256-256-256z" />
<glyph unicode="&#xe999;" glyph-name="brightness_5" data-tags="brightness_5" d="M853.333 370.773l141.227 141.227-141.227 141.227v200.107h-200.107l-141.227 141.227-141.227-141.227h-200.107v-200.107l-141.227-141.227 141.227-141.227v-200.107h200.107l141.227-141.227 141.227 141.227h200.107v200.107zM512 256c-141.227 0-256 114.773-256 256s114.773 256 256 256 256-114.773 256-256-114.773-256-256-256z" />
<glyph unicode="&#xe99a;" glyph-name="brightness_6" data-tags="brightness_6" d="M853.333 370.773l141.227 141.227-141.227 141.227v200.107h-200.107l-141.227 141.227-141.227-141.227h-200.107v-200.107l-141.227-141.227 141.227-141.227v-200.107h200.107l141.227-141.227 141.227 141.227h200.107v200.107zM512 256v512c141.227 0 256-114.773 256-256s-114.773-256-256-256z" />
<glyph unicode="&#xe99b;" glyph-name="brightness_7" data-tags="brightness_7" d="M853.333 653.227v200.107h-200.107l-141.227 141.227-141.227-141.227h-200.107v-200.107l-141.227-141.227 141.227-141.227v-200.107h200.107l141.227-141.227 141.227 141.227h200.107v200.107l141.227 141.227-141.227 141.227zM512 256c-141.227 0-256 114.773-256 256s114.773 256 256 256 256-114.773 256-256-114.773-256-256-256zM512 682.667c-94.293 0-170.667-76.373-170.667-170.667s76.373-170.667 170.667-170.667 170.667 76.373 170.667 170.667-76.373 170.667-170.667 170.667z" />
<glyph unicode="&#xe99c;" glyph-name="brightness_auto" data-tags="brightness_auto" d="M462.933 484.267h98.133l-49.067 155.733-49.067-155.733zM853.333 653.227v200.107h-200.107l-141.227 141.227-141.227-141.227h-200.107v-200.107l-141.227-141.227 141.227-141.227v-200.107h200.107l141.227-141.227 141.227 141.227h200.107v200.107l141.227 141.227-141.227 141.227zM610.133 341.333l-29.867 85.333h-136.533l-29.867-85.333h-81.067l136.533 384h85.333l136.533-384h-81.067z" />
<glyph unicode="&#xe99d;" glyph-name="brightness_high" data-tags="brightness_high" d="M853.333 653.227v200.107h-200.107l-141.227 141.227-141.227-141.227h-200.107v-200.107l-141.227-141.227 141.227-141.227v-200.107h200.107l141.227-141.227 141.227 141.227h200.107v200.107l141.227 141.227-141.227 141.227zM512 256c-141.227 0-256 114.773-256 256s114.773 256 256 256 256-114.773 256-256-114.773-256-256-256zM512 682.667c-94.293 0-170.667-76.373-170.667-170.667s76.373-170.667 170.667-170.667 170.667 76.373 170.667 170.667-76.373 170.667-170.667 170.667z" />
<glyph unicode="&#xe99e;" glyph-name="brightness_low" data-tags="brightness_low" d="M853.333 370.773l141.227 141.227-141.227 141.227v200.107h-200.107l-141.227 141.227-141.227-141.227h-200.107v-200.107l-141.227-141.227 141.227-141.227v-200.107h200.107l141.227-141.227 141.227 141.227h200.107v200.107zM512 256c-141.227 0-256 114.773-256 256s114.773 256 256 256 256-114.773 256-256-114.773-256-256-256z" />
<glyph unicode="&#xe99f;" glyph-name="brightness_medium" data-tags="brightness_medium" d="M853.333 370.773l141.227 141.227-141.227 141.227v200.107h-200.107l-141.227 141.227-141.227-141.227h-200.107v-200.107l-141.227-141.227 141.227-141.227v-200.107h200.107l141.227-141.227 141.227 141.227h200.107v200.107zM512 256v512c141.227 0 256-114.773 256-256s-114.773-256-256-256z" />
<glyph unicode="&#xe9a0;" glyph-name="broken_image" data-tags="broken_image" d="M896 896v-366.507l-128 128.427-170.667-171.093-170.667 170.667-170.667-170.667-128 128.427v280.747h768zM768 536.747l128-128.427v-280.32h-768v366.080l128-127.573 170.667 170.667 170.667-170.667 170.667 170.24z" />
<glyph unicode="&#xe9a1;" glyph-name="brush" data-tags="brush" d="M298.667 426.667c-70.827 0-128-57.173-128-128 0-55.893-49.493-85.333-85.333-85.333 39.253-52.053 106.24-85.333 170.667-85.333 94.293 0 170.667 76.373 170.667 170.667 0 70.827-57.173 128-128 128zM913.493 796.16l-117.333 117.333-412.16-412.16 117.333-117.333 412.16 412.16z" />
<glyph unicode="&#xe9a2;" glyph-name="bubble_chart" data-tags="bubble_chart" d="M443.733 409.6c0-75.405-61.128-136.533-136.533-136.533s-136.533 61.128-136.533 136.533c0 75.405 61.128 136.533 136.533 136.533s136.533-61.128 136.533-136.533zM716.8 256c0-47.128-38.205-85.333-85.333-85.333s-85.333 38.205-85.333 85.333c0 47.128 38.205 85.333 85.333 85.333s85.333-38.205 85.333-85.333zM853.333 648.533c0-113.108-91.692-204.8-204.8-204.8s-204.8 91.692-204.8 204.8c0 113.108 91.692 204.8 204.8 204.8s204.8-91.692 204.8-204.8z" />
<glyph unicode="&#xe9a3;" glyph-name="bug_report" data-tags="bug_report" d="M853.333 682.667h-119.893c-19.711 33.784-45.779 61.76-76.788 83.065l-0.865 0.562 69.547 69.547-60.16 60.16-92.587-92.587c-19.627 4.693-39.68 7.253-60.587 7.253s-40.96-2.56-60.16-7.253l-93.013 92.587-60.16-60.16 69.12-69.547c-31.573-21.76-58.027-50.347-77.227-83.627h-119.893v-85.333h89.173c-2.133-14.080-3.84-28.16-3.84-42.667v-42.667h-85.333v-85.333h85.333v-42.667c0-14.507 1.707-28.587 3.84-42.667h-89.173v-85.333h119.893c44.373-76.373 126.72-128 221.44-128s177.067 51.627 221.44 128h119.893v85.333h-89.173c2.133 14.080 3.84 28.16 3.84 42.667v42.667h85.333v85.333h-85.333v42.667c0 14.507-1.707 28.587-3.84 42.667h89.173v85.333zM597.333 341.333h-170.667v85.333h170.667v-85.333zM597.333 512h-170.667v85.333h170.667v-85.333z" />
<glyph unicode="&#xe9a4;" glyph-name="build" data-tags="build" d="M515.84 899.84c-85.76 85.76-214.187 103.253-317.44 52.907l185.173-185.173-128-128-185.173 185.173c-49.92-103.68-32.427-231.253 53.333-317.013 50.21-50.056 119.493-81.006 196.005-81.006 35.203 0 68.877 6.552 99.867 18.503l-1.898-0.644 418.987-418.987 158.293 158.293-417.28 417.707c39.253 99.84 18.773 217.6-61.867 298.24z" />
<glyph unicode="&#xe9a5;" glyph-name="burst_mode" data-tags="burst_mode" d="M42.667 810.667h85.333v-597.333h-85.333v597.333zM213.333 810.667h85.333v-597.333h-85.333v597.333zM981.333 810.667h-597.333v-597.333h597.333v597.333zM469.333 298.667l106.667 134.4 76.373-91.733 106.667 137.387 136.96-180.053h-426.667z" />
<glyph unicode="&#xe9a6;" glyph-name="business" data-tags="business" d="M512 725.333v170.667h-426.667v-768h853.333v597.333h-426.667zM256 213.333h-85.333v85.333h85.333v-85.333zM256 384h-85.333v85.333h85.333v-85.333zM256 554.667h-85.333v85.333h85.333v-85.333zM256 725.333h-85.333v85.333h85.333v-85.333zM426.667 213.333h-85.333v85.333h85.333v-85.333zM426.667 384h-85.333v85.333h85.333v-85.333zM426.667 554.667h-85.333v85.333h85.333v-85.333zM426.667 725.333h-85.333v85.333h85.333v-85.333zM853.333 213.333h-341.333v85.333h85.333v85.333h-85.333v85.333h85.333v85.333h-85.333v85.333h341.333v-426.667zM768 554.667h-85.333v-85.333h85.333v85.333zM768 384h-85.333v-85.333h85.333v85.333z" />
<glyph unicode="&#xe9a7;" glyph-name="business_center" data-tags="business_center" d="M426.667 341.333v42.667h-298.24v-256h767.573v256h-298.667v-42.667h-170.667zM938.667 725.333h-256v85.333l-85.333 85.333h-170.667l-85.333-85.333v-85.333h-256v-298.667h341.333v85.333h170.667v-85.333h341.333v298.667zM597.333 725.333h-170.667v85.333h170.667v-85.333z" />
<glyph unicode="&#xe9a8;" glyph-name="cached" data-tags="cached" d="M810.667 682.667l-170.667-170.667h128c0-141.227-114.773-256-256-256-0.254-0.001-0.554-0.001-0.854-0.001-43.445 0-84.306 11.062-119.921 30.523l1.308-0.655-62.293-62.293c51.421-33.184 114.24-52.907 181.666-52.907 0.033 0 0.066 0 0.099 0h-0.005c188.587 0 341.333 152.747 341.333 341.333h128l-170.667 170.667zM256 512c0 141.227 114.773 256 256 256 43.093 0 84.053-10.667 119.467-29.867l62.293 62.293c-51.421 33.184-114.24 52.907-181.666 52.907-0.033 0-0.066 0-0.099 0h0.005c-188.587 0-341.333-152.747-341.333-341.333h-128l170.667-170.667 170.667 170.667h-128z" />
<glyph unicode="&#xe9a9;" glyph-name="cake" data-tags="cake" d="M512 768c47.128 0 85.333 38.205 85.333 85.333v0c0 16.213-4.267 31.147-12.373 43.947l-72.96 126.72-72.96-126.72c-8.107-12.8-12.373-27.733-12.373-43.947 0-46.933 38.4-85.333 85.333-85.333zM705.28 344.747l-42.667 42.667-46.080-45.653c-55.467-55.467-152.747-55.893-208.64 0l-45.653 45.653-46.507-45.653c-27.733-27.733-64.853-43.093-104.107-43.093-31.147 0-59.733 9.813-83.627 26.027v-239.36h768v239.36c-32-21.76-72.96-32-116.907-22.187-28.16 5.973-53.333 21.76-73.813 42.24zM768 640h-213.333v85.333h-85.333v-85.333h-213.333c-70.827 0-128-57.173-128-128v-65.707c0-46.080 37.547-83.627 83.627-83.627 22.187 0 43.52 8.533 58.88 24.32l91.307 90.88 90.88-90.88c31.573-31.573 86.613-31.573 118.187 0l91.307 90.88 90.88-90.88c15.787-15.787 36.693-24.32 58.88-24.32 46.080 0 83.627 37.547 83.627 83.627v65.707c0.427 70.827-56.747 128-127.573 128z" />
<glyph unicode="&#xe9aa;" glyph-name="calendar_today" data-tags="calendar_today" d="M938.667 896h-128v85.333h-85.333v-85.333h-426.667v85.333h-85.333v-85.333h-128v-853.333h853.333v853.333zM853.333 128h-682.667v554.667h682.667v-554.667z" />
<glyph unicode="&#xe9ab;" glyph-name="calendar_view_day" data-tags="calendar_view_day" d="M128 298.667h768v-85.333h-768v85.333zM128 597.333h768v-213.333h-768v213.333zM128 768h768v-85.333h-768v85.333z" />
<glyph unicode="&#xe9ac;" glyph-name="call" data-tags="call" d="M896 364.373l-224.853 26.027-107.52-107.52c-121.681 62.791-218.383 159.493-279.489 277.593l-1.685 3.58 107.947 107.947-26.027 224h-235.093c-24.747-434.347 332.373-791.467 766.72-766.72v235.093z" />
<glyph unicode="&#xe9ad;" glyph-name="call_end" data-tags="call_end" d="M157.013 338.347l167.253 132.693v143.787c121.6 39.68 253.44 39.68 375.467 0v-144.213l166.827-132.267 157.44 157.013c-273.493 306.773-750.507 306.773-1024 0l157.013-157.013z" />
<glyph unicode="&#xe9ae;" glyph-name="call_made" data-tags="call_made" d="M384 810.667v-85.333h281.173l-494.507-494.507 60.16-60.16 494.507 494.507v-281.173h85.333v426.667h-426.667z" />
<glyph unicode="&#xe9af;" glyph-name="call_merge" data-tags="call_merge" d="M725.333 153.173l60.16 60.16-145.493 145.493-60.16-60.16 145.493-145.493zM320 682.667h149.333v-238.507l-230.827-230.827 60.16-60.16 256 256v273.493h149.333l-192 192-192-192z" />
<glyph unicode="&#xe9b0;" glyph-name="call_missed" data-tags="call_missed" d="M835.84 725.333l-323.84-323.84-238.507 238.507h195.84v85.333h-341.333v-341.333h85.333v195.84l298.667-298.667 384 384-60.16 60.16z" />
<glyph unicode="&#xe9b1;" glyph-name="call_missed_outgoing" data-tags="call_missed_outgoing" d="M128 665.173l384-384 298.667 298.667v-195.84h85.333v341.333h-341.333v-85.333h195.84l-238.507-238.507-323.84 323.84-60.16-60.16z" />
<glyph unicode="&#xe9b2;" glyph-name="call_received" data-tags="call_received" d="M853.333 793.173l-60.16 60.16-494.507-494.507v281.173h-85.333v-426.667h426.667v85.333h-281.173l494.507 494.507z" />
<glyph unicode="&#xe9b3;" glyph-name="call_split" data-tags="call_split" d="M597.333 853.333l97.707-97.707-122.88-122.88 60.587-60.587 122.88 122.88 97.707-97.707v256h-256zM426.667 853.333h-256v-256l97.707 97.707 200.96-200.533v-323.84h85.333v358.827l-225.707 226.133 97.707 97.707z" />
<glyph unicode="&#xe9b4;" glyph-name="call_to_action" data-tags="call_to_action" d="M981.333 896h-938.667v-768h938.667v768zM896 213.333h-768v128h768v-128z" />
<glyph unicode="&#xe9b5;" glyph-name="camera" data-tags="camera" d="M401.067 576l203.52 352.427c-27.901 6.51-59.937 10.241-92.845 10.241-102.544 0-196.625-36.233-270.139-96.594l0.744 0.593 156.16-270.933 2.56 4.267zM919.040 640c-39.253 124.587-134.4 224.427-256 270.507l-156.16-270.507h412.16zM930.133 597.333h-319.573l12.373-21.333 203.093-352c69.807 75.189 112.641 176.265 112.641 287.345 0 0.231 0 0.461-0.001 0.692v-0.037c0 29.44-2.987 57.6-8.533 85.333zM364.373 512l-166.4 288c-69.863-75.488-112.717-176.854-112.717-288.229 0-30.126 3.135-59.519 9.098-87.872l-0.487 2.768h319.573l-49.067 85.333zM104.96 384c39.253-124.587 134.4-224.427 256-270.507l156.16 270.507h-412.16zM585.813 384l-166.4-288.427c27.901-6.51 59.937-10.241 92.845-10.241 102.544 0 196.625 36.233 270.139 96.594l-0.744-0.593-156.16 270.933-39.68-68.267z" />
<glyph unicode="&#xe9b6;" glyph-name="camera_alt" data-tags="camera_alt" d="M640 512c0-70.692-57.308-128-128-128s-128 57.308-128 128c0 70.692 57.308 128 128 128s128-57.308 128-128zM718.080 853.333l-78.080 85.333h-256l-78.080-85.333h-220.587v-682.667h853.333v682.667h-220.587zM512 298.667c-117.76 0-213.333 95.573-213.333 213.333s95.573 213.333 213.333 213.333 213.333-95.573 213.333-213.333-95.573-213.333-213.333-213.333z" />
<glyph unicode="&#xe9b7;" glyph-name="camera_enhance" data-tags="camera_enhance" d="M718.080 810.667l-78.080 85.333h-256l-78.080-85.333h-220.587v-682.667h853.333v682.667h-220.587zM512 256c-117.76 0-213.333 95.573-213.333 213.333s95.573 213.333 213.333 213.333 213.333-95.573 213.333-213.333-95.573-213.333-213.333-213.333zM512 640l-53.333-117.333-117.333-53.333 117.333-53.333 53.333-117.333 53.333 117.333 117.333 53.333-117.333 53.333z" />
<glyph unicode="&#xe9b8;" glyph-name="camera_front" data-tags="camera_front" d="M426.667 170.667h-213.333v-85.333h213.333v-85.333l128 128-128 128v-85.333zM597.333 170.667v-85.333h213.333v85.333h-213.333zM512 682.667c46.933 0 85.333 38.4 85.333 85.333s-38.4 85.333-85.333 85.333-84.907-38.4-84.907-85.333 37.973-85.333 84.907-85.333zM810.667 1024h-597.333v-768h597.333v768zM298.667 938.667h426.667v-448c0 71.253-142.080 106.667-213.333 106.667s-213.333-35.413-213.333-106.667v448z" />
<glyph unicode="&#xe9b9;" glyph-name="camera_rear" data-tags="camera_rear" d="M426.667 170.667h-213.333v-85.333h213.333v-85.333l128 128-128 128v-85.333zM597.333 170.667v-85.333h213.333v85.333h-213.333zM810.667 1024h-597.333v-768h597.333v768zM512 768c-47.36 0-85.333 38.4-85.333 85.333s37.973 85.333 84.907 85.333 85.333-38.4 85.333-85.333c0.427-46.933-37.973-85.333-84.907-85.333z" />
<glyph unicode="&#xe9ba;" glyph-name="camera_roll" data-tags="camera_roll" d="M597.333 810.667v85.333h-128v85.333h-256v-85.333h-128v-810.667h512v85.333h341.333v640h-341.333zM512 256h-85.333v85.333h85.333v-85.333zM512 640h-85.333v85.333h85.333v-85.333zM682.667 256h-85.333v85.333h85.333v-85.333zM682.667 640h-85.333v85.333h85.333v-85.333zM853.333 256h-85.333v85.333h85.333v-85.333zM853.333 640h-85.333v85.333h85.333v-85.333z" />
<glyph unicode="&#xe9bb;" glyph-name="cancel" data-tags="cancel" d="M512 938.667c-235.947 0-426.667-190.72-426.667-426.667s190.72-426.667 426.667-426.667 426.667 190.72 426.667 426.667-190.72 426.667-426.667 426.667zM725.333 358.827l-60.16-60.16-153.173 153.173-153.173-153.173-60.16 60.16 153.173 153.173-153.173 153.173 60.16 60.16 153.173-153.173 153.173 153.173 60.16-60.16-153.173-153.173 153.173-153.173z" />
<glyph unicode="&#xe9bc;" glyph-name="cancel_presentation" data-tags="cancel_presentation" d="M42.667 896v-768h938.667v768h-938.667zM896 213.333h-768v597.333h768v-597.333zM401.493 341.333l110.507 110.507 110.507-110.507 60.16 60.16-110.507 110.507 110.507 110.507-60.16 60.16-110.507-110.507-110.507 110.507-60.16-60.16 110.507-110.507-110.507-110.507z" />
<glyph unicode="&#xe9bd;" glyph-name="card_giftcard" data-tags="card_giftcard" d="M938.667 768h-178.347c4.693 13.227 7.68 27.733 7.68 42.667 0 0.063 0 0.139 0 0.214 0 70.598-57.231 127.829-127.829 127.829-44.475 0-83.645-22.713-106.543-57.172l-0.294-0.471-21.333-28.587-21.333 29.013c-23.040 34.133-61.867 57.173-106.667 57.173-70.827 0-128-57.173-128-128 0-14.933 2.987-29.44 7.68-42.667h-177.92v-640h852.907v640zM640 853.333c23.467 0 42.667-19.2 42.667-42.667s-19.2-42.667-42.667-42.667-42.667 19.2-42.667 42.667 19.2 42.667 42.667 42.667zM384 853.333c23.467 0 42.667-19.2 42.667-42.667s-19.2-42.667-42.667-42.667-42.667 19.2-42.667 42.667 19.2 42.667 42.667 42.667zM853.333 213.333h-682.667v85.333h682.667v-85.333zM853.333 426.667h-682.667v256h216.747l-88.747-120.747 69.12-49.92 144.213 196.267 144.213-196.267 69.12 49.92-88.747 120.747h216.747v-256z" />
<glyph unicode="&#xe9be;" glyph-name="card_membership" data-tags="card_membership" d="M938.667 938.667h-853.333v-640h256v-213.333l170.667 85.333 170.667-85.333v213.333h256v640zM853.333 384h-682.667v85.333h682.667v-85.333zM853.333 597.333h-682.667v256h682.667v-256z" />
<glyph unicode="&#xe9bf;" glyph-name="card_travel" data-tags="card_travel" d="M938.667 768h-213.333v85.333c0 46.933-38.4 85.333-85.333 85.333h-256c-46.933 0-85.333-38.4-85.333-85.333v-85.333h-213.333v-640h853.333v640zM384 853.333h256v-85.333h-256v85.333zM853.333 213.333h-682.667v85.333h682.667v-85.333zM853.333 426.667h-682.667v256h128v-85.333h85.333v85.333h256v-85.333h85.333v85.333h128v-256z" />
<glyph unicode="&#xe9c0;" glyph-name="casino" data-tags="casino" d="M896 896h-768v-768h768v768zM320 256c-35.413 0-64 28.587-64 64s28.587 64 64 64 64-28.587 64-64-28.587-64-64-64zM320 640c-35.413 0-64 28.587-64 64s28.587 64 64 64 64-28.587 64-64-28.587-64-64-64zM512 448c-35.413 0-64 28.587-64 64s28.587 64 64 64 64-28.587 64-64-28.587-64-64-64zM704 256c-35.413 0-64 28.587-64 64s28.587 64 64 64 64-28.587 64-64-28.587-64-64-64zM704 640c-35.413 0-64 28.587-64 64s28.587 64 64 64 64-28.587 64-64-28.587-64-64-64z" />
<glyph unicode="&#xe9c1;" glyph-name="cast" data-tags="cast" d="M981.333 896h-938.667v-213.333h85.333v128h768v-597.333h-298.667v-85.333h384v768zM42.667 256v-128h128c0 70.827-57.173 128-128 128zM42.667 426.667v-85.333c117.76 0 213.333-95.573 213.333-213.333h85.333c0 165.12-133.547 298.667-298.667 298.667zM42.667 597.333v-85.333c212.077 0 384-171.923 384-384v0h85.333c0 259.413-210.347 469.333-469.333 469.333z" />
<glyph unicode="&#xe9c2;" glyph-name="cast_connected" data-tags="cast_connected" d="M42.667 256v-128h128c0 70.827-57.173 128-128 128zM42.667 426.667v-85.333c117.76 0 213.333-95.573 213.333-213.333h85.333c0 165.12-133.547 298.667-298.667 298.667zM810.667 725.333h-597.333v-69.547c168.96-54.613 302.507-188.16 357.12-357.12h240.213v426.667zM42.667 597.333v-85.333c212.077 0 384-171.923 384-384v0h85.333c0 259.413-210.347 469.333-469.333 469.333zM981.333 896h-938.667v-213.333h85.333v128h768v-597.333h-298.667v-85.333h384v768z" />
<glyph unicode="&#xe9c3;" glyph-name="cast_for_education" data-tags="cast_for_education" d="M981.333 896h-938.667v-213.333h85.333v128h768v-597.333h-298.667v-85.333h384v768zM42.667 256v-128h128c0 70.827-57.173 128-128 128zM42.667 426.667v-85.333c117.76 0 213.333-95.573 213.333-213.333h85.333c0 165.12-133.547 298.667-298.667 298.667zM42.667 597.333v-85.333c212.077 0 384-171.923 384-384v0h85.333c0 259.413-210.347 469.333-469.333 469.333zM469.333 550.827v-85.333l149.333-81.493 149.333 81.493v85.333l-149.333-81.493-149.333 81.493zM618.667 768l-234.667-128 234.667-128 234.667 128-234.667 128z" />
<glyph unicode="&#xe9c4;" glyph-name="category" data-tags="category" d="M512 938.667l-234.667-384h469.333zM938.667 277.333c0-106.039-85.961-192-192-192s-192 85.961-192 192c0 106.039 85.961 192 192 192s192-85.961 192-192zM128 448h341.333v-341.333h-341.333z" />
<glyph unicode="&#xe9c5;" d="M256 85.333h682.667v683.947l-682.667-683.947z" />
<glyph unicode="&#xe9c6;" d="M768 598.187l-512-512.853h512v512.853zM167.68 770.987l55.040-55.040c136.107 136.107 357.547 136.107 493.653 0l55.040 55.040c-166.827 166.827-437.333 166.827-603.733 0zM386.987 551.68l82.347-82.347 82.347 82.347c-21.124 20.966-50.222 33.924-82.347 33.924s-61.223-12.957-82.354-33.931l0.007 0.007zM277.333 661.333l55.040-55.040c75.52 75.52 198.4 75.52 274.347 0l54.613 55.040c-49.184 49.034-117.052 79.352-192 79.352s-142.816-30.318-192.007-79.359l0.007 0.007z" />
<glyph unicode="&#xe9c7;" glyph-name="center_focus_strong" data-tags="center_focus_strong" d="M512 682.667c-94.293 0-170.667-76.373-170.667-170.667s76.373-170.667 170.667-170.667 170.667 76.373 170.667 170.667-76.373 170.667-170.667 170.667zM213.333 384h-85.333v-256h256v85.333h-170.667v170.667zM213.333 810.667h170.667v85.333h-256v-256h85.333v170.667zM896 896h-256v-85.333h170.667v-170.667h85.333v256zM810.667 213.333h-170.667v-85.333h256v256h-85.333v-170.667z" />
<glyph unicode="&#xe9c8;" glyph-name="center_focus_weak" data-tags="center_focus_weak" d="M213.333 384h-85.333v-256h256v85.333h-170.667v170.667zM213.333 810.667h170.667v85.333h-256v-256h85.333v170.667zM896 896h-256v-85.333h170.667v-170.667h85.333v256zM810.667 213.333h-170.667v-85.333h256v256h-85.333v-170.667zM512 682.667c-94.293 0-170.667-76.373-170.667-170.667s76.373-170.667 170.667-170.667 170.667 76.373 170.667 170.667-76.373 170.667-170.667 170.667zM512 426.667c-46.933 0-85.333 38.4-85.333 85.333s38.4 85.333 85.333 85.333 85.333-38.4 85.333-85.333-38.4-85.333-85.333-85.333z" />
<glyph unicode="&#xe9c9;" glyph-name="change_history" data-tags="change_history" d="M512 692.48l272.64-436.48h-545.28l272.64 436.48zM512 853.333l-426.667-682.667h853.333l-426.667 682.667z" />
<glyph unicode="&#xe9ca;" glyph-name="chat" data-tags="chat" d="M938.667 938.667h-852.907l-0.427-853.333 170.667 170.667h682.667v682.667zM256 640h512v-85.333h-512v85.333zM597.333 426.667h-341.333v85.333h341.333v-85.333zM768 682.667h-512v85.333h512v-85.333z" />
<glyph unicode="&#xe9cb;" glyph-name="chat_bubble" data-tags="chat_bubble" d="M938.667 938.667h-853.333v-853.333l170.667 170.667h682.667v682.667z" />
<glyph unicode="&#xe9cc;" glyph-name="chat_bubble_outline" data-tags="chat_bubble_outline" d="M938.667 938.667h-853.333v-853.333l170.667 170.667h682.667v682.667zM853.333 341.333h-597.333l-85.333-85.333v597.333h682.667v-512z" />
<glyph unicode="&#xe9cd;" glyph-name="check" data-tags="check" d="M384 334.080l-177.92 177.92-60.587-60.16 238.507-238.507 512 512-60.16 60.16-451.84-451.413z" />
<glyph unicode="&#xe9ce;" glyph-name="check_box" data-tags="check_box" d="M896 896h-768v-768h768v768zM426.667 298.667l-213.333 213.333 60.16 60.16 153.173-152.747 323.84 323.84 60.16-60.587-384-384z" />
<glyph unicode="&#xe9cf;" glyph-name="check_box_outline_blank" data-tags="check_box_outline_blank" d="M810.667 810.667v-597.333h-597.333v597.333h597.333zM896 896h-768v-768h768v768z" />
<glyph unicode="&#xe9d0;" glyph-name="check_circle" data-tags="check_circle" d="M512 938.667c-235.52 0-426.667-191.147-426.667-426.667s191.147-426.667 426.667-426.667 426.667 191.147 426.667 426.667-191.147 426.667-426.667 426.667zM426.667 298.667l-213.333 213.333 60.16 60.16 153.173-152.747 323.84 323.84 60.16-60.587-384-384z" />
<glyph unicode="&#xe9d1;" glyph-name="check_circle_outline" data-tags="check_circle_outline" d="M512 938.667c-235.52 0-426.667-191.147-426.667-426.667s191.147-426.667 426.667-426.667 426.667 191.147 426.667 426.667-191.147 426.667-426.667 426.667zM512 170.667c-188.16 0-341.333 153.173-341.333 341.333s153.173 341.333 341.333 341.333 341.333-153.173 341.333-341.333-153.173-341.333-341.333-341.333zM707.84 700.587l-281.173-281.173-110.507 110.080-60.16-60.16 170.667-170.667 341.333 341.333z" />
<glyph unicode="&#xe9d2;" glyph-name="chevron_left" data-tags="chevron_left" d="M657.493 707.84l-60.16 60.16-256-256 256-256 60.16 60.16-195.413 195.84 195.413 195.84z" />
<glyph unicode="&#xe9d3;" glyph-name="chevron_right" data-tags="chevron_right" d="M426.667 768l-60.16-60.16 195.413-195.84-195.413-195.84 60.16-60.16 256 256-256 256z" />
<glyph unicode="&#xe9d4;" glyph-name="child_care" data-tags="child_care" d="M672 576c0-29.455-23.878-53.333-53.333-53.333s-53.333 23.878-53.333 53.333c0 29.455 23.878 53.333 53.333 53.333s53.333-23.878 53.333-53.333zM458.667 576c0-29.455-23.878-53.333-53.333-53.333s-53.333 23.878-53.333 53.333c0 29.455 23.878 53.333 53.333 53.333s53.333-23.878 53.333-53.333zM512 298.667c85.76 0 159.573 52.48 192 128h-384c32.427-75.52 106.24-128 192-128zM978.773 540.16c-11.314 64.781-57.794 116.387-118.682 134.936l-1.211 0.317c-23.49 48.704-54.913 89.95-93.042 123.813l-0.398 0.347c-67.413 60.16-156.16 96.427-253.44 96.427s-186.027-36.267-253.44-96.427c-39.253-34.56-71.253-76.8-93.44-124.16-62.177-18.74-108.717-70.408-119.748-134.239l-0.145-1.014c-1.707-8.96-2.56-18.347-2.56-28.16s0.853-19.2 2.56-28.16c11.314-64.781 57.794-116.387 118.682-134.936l1.211-0.317c23.187-48.397 54.338-89.372 92.191-122.962l0.396-0.345c67.413-60.587 156.587-97.28 254.293-97.28s186.88 36.693 254.72 97.28c38.4 34.133 70.4 76.373 92.587 123.307 61.978 18.91 108.322 70.524 119.322 134.239l0.145 1.015c1.707 8.96 2.56 18.347 2.56 28.16s-0.853 19.2-2.56 28.16zM810.667 426.667c-4.267 0-8.107 0.853-12.373 1.28-8.533-28.587-20.907-55.040-36.693-79.36-53.333-81.493-145.067-135.253-249.6-135.253s-196.267 53.76-249.6 135.253c-15.787 24.32-28.16 50.773-36.693 79.36-4.267-0.427-8.107-1.28-12.373-1.28-46.933 0-85.333 38.4-85.333 85.333s38.4 85.333 85.333 85.333c4.267 0 8.107-0.853 12.373-1.28 8.533 28.587 20.907 55.040 36.693 79.36 53.333 81.493 145.067 135.253 249.6 135.253s196.267-53.76 249.6-135.253c15.787-24.32 28.16-50.773 36.693-79.36 4.267 0.427 8.107 1.28 12.373 1.28 46.933 0 85.333-38.4 85.333-85.333s-38.4-85.333-85.333-85.333z" />
<glyph unicode="&#xe9d5;" glyph-name="child_friendly" data-tags="child_friendly" d="M554.667 938.667v-341.333h341.333c0 188.587-152.747 341.333-341.333 341.333zM824.32 346.027c44.695 56.899 71.68 129.555 71.68 208.513 0 0.045 0 0.089 0 0.134v-0.007h-621.227l-40.533 85.333h-148.907v-85.333h94.72s80.64-173.653 90.453-188.587c-46.933-25.173-78.507-74.667-78.507-131.413 0-82.347 66.987-149.333 149.333-149.333 75.093 0 137.387 55.467 147.627 128h88.747c10.24-72.533 72.533-128 147.627-128 82.347 0 149.333 66.987 149.333 149.333 0 44.373-19.627 84.053-50.347 111.36zM341.333 170.667c-35.413 0-64 28.587-64 64s28.587 64 64 64 64-28.587 64-64-28.587-64-64-64zM725.333 170.667c-35.413 0-64 28.587-64 64s28.587 64 64 64 64-28.587 64-64-28.587-64-64-64z" />
<glyph unicode="&#xe9d6;" glyph-name="chrome_reader_mode" data-tags="chrome_reader_mode" d="M554.667 512h298.667v-64h-298.667v64zM554.667 618.667h298.667v-64h-298.667v64zM554.667 405.333h298.667v-64h-298.667v64zM981.333 853.333h-938.667v-725.333h938.667v725.333zM896 213.333h-384v554.667h384v-554.667z" />
<glyph unicode="&#xe9d7;" glyph-name="class" data-tags="class" d="M853.333 938.667h-682.667v-853.333h682.667v853.333zM256 853.333h213.333v-341.333l-106.667 64-106.667-64v341.333z" />
<glyph unicode="&#xe9d8;" glyph-name="clear" data-tags="clear" d="M810.667 750.507l-60.16 60.16-238.507-238.507-238.507 238.507-60.16-60.16 238.507-238.507-238.507-238.507 60.16-60.16 238.507 238.507 238.507-238.507 60.16 60.16-238.507 238.507 238.507 238.507z" />
<glyph unicode="&#xe9d9;" glyph-name="clear_all" data-tags="clear_all" d="M213.333 469.333h597.333v85.333h-597.333v-85.333zM128 298.667h597.333v85.333h-597.333v-85.333zM298.667 725.333v-85.333h597.333v85.333h-597.333z" />
<glyph unicode="&#xe9da;" glyph-name="close" data-tags="close" d="M810.667 750.507l-60.16 60.16-238.507-238.507-238.507 238.507-60.16-60.16 238.507-238.507-238.507-238.507 60.16-60.16 238.507 238.507 238.507-238.507 60.16 60.16-238.507 238.507 238.507 238.507z" />
<glyph unicode="&#xe9db;" glyph-name="closed_caption" data-tags="closed_caption" d="M896 853.333h-768v-682.667h768v682.667zM469.333 554.667h-64v21.333h-85.333v-128h85.333v21.333h64v-85.333h-213.333v256h213.333v-85.333zM768 554.667h-64v21.333h-85.333v-128h85.333v21.333h64v-85.333h-213.333v256h213.333v-85.333z" />
<glyph unicode="&#xe9dc;" glyph-name="cloud" data-tags="cloud" d="M825.6 595.627c-29.96 147.919-158.923 257.707-313.528 257.707-0.025 0-0.051 0-0.076 0h0.004c-123.307 0-230.4-69.973-283.733-172.373-128.922-14.339-228.267-122.7-228.267-254.264 0-0.010 0-0.021 0-0.031v0.001c0-141.227 114.773-256 256-256h554.667c117.76 0 213.333 95.573 213.333 213.333 0 112.64-87.467 203.947-198.4 211.627z" />
<glyph unicode="&#xe9dd;" glyph-name="cloud_circle" data-tags="cloud_circle" d="M512 938.667c-235.52 0-426.667-191.147-426.667-426.667s191.147-426.667 426.667-426.667 426.667 191.147 426.667 426.667-191.147 426.667-426.667 426.667zM704 341.333h-362.667c-70.827 0-128 57.173-128 128s57.173 128 128 128h5.973c18.773 73.813 84.907 128 164.693 128 94.293 0 170.667-76.373 170.667-170.667h21.333c58.91 0 106.667-47.756 106.667-106.667s-47.756-106.667-106.667-106.667v0z" />
<glyph unicode="&#xe9de;" glyph-name="cloud_done" data-tags="cloud_done" d="M825.6 595.627c-29.96 147.919-158.923 257.707-313.528 257.707-0.025 0-0.051 0-0.076 0h0.004c-123.307 0-230.4-69.973-283.733-172.373-128.922-14.339-228.267-122.7-228.267-254.264 0-0.010 0-0.021 0-0.031v0.001c0-141.227 114.773-256 256-256h554.667c117.76 0 213.333 95.573 213.333 213.333 0 112.64-87.467 203.947-198.4 211.627zM426.667 298.667l-149.333 149.333 60.16 60.16 89.173-89.173 221.013 221.013 60.16-60.16-281.173-281.173z" />
<glyph unicode="&#xe9df;" glyph-name="cloud_download" data-tags="cloud_download" d="M825.6 595.627c-29.96 147.919-158.923 257.707-313.528 257.707-0.025 0-0.051 0-0.076 0h0.004c-123.307 0-230.4-69.973-283.733-172.373-128.922-14.339-228.267-122.7-228.267-254.264 0-0.010 0-0.021 0-0.031v0.001c0-141.227 114.773-256 256-256h554.667c117.76 0 213.333 95.573 213.333 213.333 0 112.64-87.467 203.947-198.4 211.627zM725.333 469.333l-213.333-213.333-213.333 213.333h128v170.667h170.667v-170.667h128z" />
<glyph unicode="&#xe9e0;" glyph-name="cloud_off" data-tags="cloud_off" d="M1024 384c0 112.64-87.467 203.947-198.4 211.627-29.96 147.919-158.923 257.707-313.528 257.707-0.025 0-0.051 0-0.076 0h0.004c-56.747 0-109.653-15.36-155.733-41.387l63.573-63.573c28.587 12.373 59.307 19.627 92.16 19.627 129.707 0 234.667-104.96 234.667-234.667v-21.333h64c0.026 0 0.056 0 0.087 0 70.598 0 127.829-57.231 127.829-127.829 0-41.857-20.118-79.015-51.212-102.333l-0.331-0.238 60.16-60.16c46.507 39.253 76.8 96.853 76.8 162.56zM188.16 859.307l-60.16-60.16 118.187-118.187h-17.92c-128.922-14.339-228.267-122.7-228.267-254.264 0-0.010 0-0.021 0-0.031v0.001c0-141.227 114.773-256 256-256h500.48l85.333-85.333 60.16 60.16-713.813 713.813zM256 256c-94.293 0-170.667 76.373-170.667 170.667s76.373 170.667 170.667 170.667h73.813l341.333-341.333h-415.147z" />
<glyph unicode="&#xe9e1;" glyph-name="cloud_queue" data-tags="cloud_queue" d="M825.6 595.627c-29.96 147.919-158.923 257.707-313.528 257.707-0.025 0-0.051 0-0.076 0h0.004c-123.307 0-230.4-69.973-283.733-172.373-128.922-14.339-228.267-122.7-228.267-254.264 0-0.010 0-0.021 0-0.031v0.001c0-141.227 114.773-256 256-256h554.667c117.76 0 213.333 95.573 213.333 213.333 0 112.64-87.467 203.947-198.4 211.627zM810.667 256h-554.667c-94.293 0-170.667 76.373-170.667 170.667s76.373 170.667 170.667 170.667h30.293c28.16 98.56 118.187 170.667 225.707 170.667 129.707 0 234.667-104.96 234.667-234.667v-21.333h64c70.827 0 128-57.173 128-128s-57.173-128-128-128z" />
</font>
</defs>
</svg>
